<svg width="500" height="125" viewBox="0 0 500 125" fill="none" xmlns="http://www.w3.org/2000/svg">
<path d="M473.907 69.4632C472.155 69.2761 469.307 70.1774 468.482 70.7895C468.261 71.6057 468.142 71.9713 467.317 75.0492C466.96 76.3755 467.36 77.0387 468.253 76.7836C471.977 75.7208 474.374 74.9301 477.333 73.9694C478.073 73.7313 478.379 73.0001 477.359 72.2094C476.729 71.7248 474.876 70.2879 473.907 69.4632Z" fill="#F5333F"/>
<path d="M488.624 23.9337C484.305 7.24375 468.491 -3.09498 453.306 0.833057C438.121 4.76109 429.304 21.4765 433.623 38.1664C434.609 41.9584 436.182 45.4273 438.214 48.4711C450.976 65.9943 469.366 70.781 470.982 69.1316C473.907 69.4547 488.029 53.1729 489.61 35.1651C489.908 31.5177 489.61 27.7172 488.624 23.9252V23.9337Z" fill="#F5333F"/>
<path d="M439.626 20.9153C439.626 20.9153 447.805 28.6184 447.83 28.5504C449.573 21.7486 454.76 16.8513 458.382 14.5727C458.441 14.5217 451.767 8.81665 451.767 8.81665C446.334 10.4916 441.641 16.1031 439.617 20.8473" fill="white"/>
<path d="M477.265 124.456C467.436 113.658 473.618 102.018 480.096 93.0824C482.749 89.418 484.296 85.5665 484.568 81.9275C484.807 78.6967 484.007 75.7209 482.307 73.5443C479.314 69.7098 474.119 68.783 468.397 71.0786L467.649 69.2167C470.956 67.8903 474.221 67.5077 477.103 68.1199C479.858 68.698 482.205 70.1519 483.888 72.3115C485.895 74.8791 486.839 78.3481 486.566 82.072C486.269 86.0766 484.594 90.2937 481.72 94.2558C477.563 99.9863 475.25 104.629 474.451 108.854C473.448 114.16 474.85 118.819 478.753 123.104L477.265 124.456V124.456Z" fill="white"/>
<path d="M495.902 111.43C496.727 111.779 497.449 112.255 498.053 112.867C498.657 113.479 499.141 114.202 499.481 115.027C499.83 115.851 500 116.744 500 117.688C500 118.632 499.83 119.541 499.481 120.357C499.133 121.174 498.657 121.896 498.053 122.5C497.449 123.104 496.727 123.588 495.902 123.928C495.077 124.277 494.184 124.447 493.224 124.447C492.263 124.447 491.37 124.277 490.545 123.928C489.721 123.58 488.998 123.104 488.394 122.5C487.791 121.896 487.306 121.182 486.966 120.357C486.617 119.541 486.447 118.649 486.447 117.688C486.447 116.727 486.617 115.851 486.966 115.027C487.315 114.202 487.791 113.479 488.394 112.867C488.998 112.255 489.721 111.77 490.545 111.43C491.37 111.082 492.263 110.911 493.224 110.911C494.184 110.911 495.077 111.082 495.902 111.43ZM490.937 112.331C490.239 112.637 489.636 113.046 489.126 113.573C488.615 114.091 488.216 114.712 487.935 115.418C487.646 116.123 487.51 116.88 487.51 117.696C487.51 118.513 487.655 119.269 487.935 119.975C488.224 120.681 488.615 121.293 489.126 121.82C489.636 122.347 490.239 122.755 490.937 123.061C491.634 123.367 492.399 123.52 493.224 123.52C494.048 123.52 494.797 123.367 495.494 123.061C496.191 122.755 496.795 122.347 497.305 121.82C497.815 121.301 498.215 120.681 498.504 119.975C498.793 119.269 498.937 118.513 498.937 117.696C498.937 116.88 498.793 116.123 498.504 115.418C498.215 114.712 497.806 114.1 497.305 113.573C496.795 113.054 496.191 112.637 495.494 112.331C494.797 112.025 494.04 111.872 493.224 111.872C492.407 111.872 491.634 112.025 490.937 112.331ZM490.767 121.607V113.768H493.776C494.661 113.768 495.307 113.955 495.715 114.321C496.123 114.695 496.327 115.231 496.327 115.936C496.327 116.276 496.276 116.574 496.174 116.829C496.072 117.084 495.927 117.297 495.749 117.475C495.57 117.654 495.358 117.79 495.12 117.892C494.882 117.994 494.627 118.07 494.363 118.121L496.693 121.607H495.562L493.36 118.121H491.736V121.607H490.767V121.607ZM493.878 117.28C494.167 117.263 494.414 117.212 494.635 117.127C494.856 117.042 495.026 116.906 495.162 116.719C495.298 116.531 495.366 116.268 495.366 115.945C495.366 115.664 495.315 115.443 495.213 115.273C495.111 115.103 494.967 114.967 494.797 114.865C494.618 114.763 494.423 114.695 494.201 114.652C493.98 114.618 493.751 114.601 493.513 114.601H491.744V117.314H493.02C493.309 117.314 493.598 117.305 493.887 117.288L493.878 117.28Z" fill="white"/>
<path d="M280.413 69.5653V90.2937H280.566C281.067 89.0779 281.781 88.0577 282.691 87.2159C283.601 86.3827 284.63 85.694 285.769 85.1669C286.908 84.6397 288.099 84.2401 289.34 83.9936C290.581 83.7385 291.78 83.611 292.945 83.611C295.53 83.611 297.681 83.9681 299.398 84.6738C301.116 85.3794 302.51 86.3742 303.573 87.6325C304.635 88.8994 305.384 90.4043 305.809 92.1472C306.242 93.8902 306.455 95.8287 306.455 97.9543V123.767H300.002V97.1976C300.002 94.7659 299.296 92.8444 297.876 91.4245C296.456 90.0047 294.509 89.299 292.027 89.299C290.054 89.299 288.345 89.6051 286.9 90.2087C285.454 90.8124 284.256 91.6796 283.295 92.7934C282.334 93.9072 281.611 95.208 281.135 96.7044C280.651 98.2008 280.413 99.8333 280.413 101.602V123.767H273.959V69.5568H280.413V69.5653Z" fill="#F5333F"/>
<path d="M340.983 121.267C338.049 123.495 334.351 124.609 329.896 124.609C326.758 124.609 324.038 124.099 321.733 123.087C319.429 122.075 317.491 120.655 315.926 118.836C314.354 117.016 313.18 114.84 312.398 112.306C311.616 109.772 311.174 107.018 311.072 104.033C311.072 101.049 311.531 98.3113 312.441 95.8372C313.35 93.3545 314.626 91.2035 316.275 89.384C317.916 87.5645 319.863 86.1446 322.116 85.1329C324.369 84.1211 326.835 83.611 329.522 83.611C333.016 83.611 335.907 84.3337 338.211 85.779C340.515 87.2244 342.36 89.0609 343.754 91.28C345.149 93.5076 346.109 95.9392 346.637 98.5664C347.164 101.202 347.385 103.702 347.283 106.082H317.899C317.848 107.8 318.052 109.432 318.503 110.98C318.962 112.527 319.693 113.887 320.705 115.078C321.716 116.268 323.009 117.22 324.573 117.926C326.138 118.632 327.991 118.989 330.117 118.989C332.854 118.989 335.09 118.36 336.833 117.093C338.576 115.826 339.733 113.904 340.285 111.32H346.662C345.803 115.724 343.899 119.04 340.966 121.267H340.983ZM339.427 96.0582C338.848 94.6894 338.058 93.5161 337.072 92.5298C336.085 91.5436 334.92 90.7614 333.577 90.1747C332.234 89.5965 330.754 89.299 329.139 89.299C327.524 89.299 325.959 89.588 324.624 90.1747C323.281 90.7614 322.133 91.5521 321.172 92.5638C320.212 93.5756 319.455 94.7574 318.894 96.0923C318.333 97.4356 318.009 98.864 317.907 100.377H340.455C340.353 98.8555 340.013 97.4186 339.427 96.0498V96.0582Z" fill="#F5333F"/>
<path d="M382.933 124.609C381.258 124.609 379.931 124.141 378.945 123.206C377.959 122.271 377.466 120.74 377.466 118.615C375.697 120.74 373.631 122.271 371.276 123.206C368.921 124.141 366.379 124.609 363.65 124.609C361.881 124.609 360.206 124.422 358.642 124.039C357.069 123.657 355.691 123.027 354.501 122.143C353.311 121.259 352.376 120.12 351.695 118.725C351.015 117.331 350.675 115.647 350.675 113.675C350.675 111.447 351.058 109.628 351.814 108.208C352.571 106.788 353.574 105.64 354.816 104.756C356.057 103.872 357.468 103.2 359.067 102.741C360.665 102.282 362.298 101.908 363.964 101.602C365.733 101.245 367.416 100.981 369.014 100.803C370.604 100.624 372.016 100.377 373.232 100.046C374.447 99.7142 375.408 99.2381 376.114 98.6004C376.82 97.9713 377.177 97.0445 377.177 95.8287C377.177 94.4088 376.913 93.278 376.377 92.4108C375.85 91.5521 375.162 90.8889 374.328 90.4383C373.495 89.9791 372.56 89.6816 371.523 89.5285C370.485 89.3755 369.457 89.299 368.445 89.299C365.716 89.299 363.437 89.8176 361.609 90.8549C359.79 91.8922 358.795 93.8562 358.65 96.7384H352.197C352.299 94.3068 352.801 92.2578 353.719 90.5913C354.629 88.9249 355.844 87.5645 357.366 86.5272C358.888 85.49 360.631 84.7418 362.604 84.2911C364.576 83.832 366.651 83.611 368.827 83.611C370.596 83.611 372.356 83.7385 374.107 83.9936C375.85 84.2486 377.432 84.7673 378.852 85.5495C380.271 86.3317 381.402 87.437 382.269 88.8483C383.128 90.2682 383.562 92.1132 383.562 94.3918V114.585C383.562 116.107 383.647 117.22 383.825 117.926C384.004 118.632 384.599 118.989 385.611 118.989C386.163 118.989 386.827 118.861 387.583 118.606V123.614C386.47 124.269 384.922 124.6 382.95 124.6L382.933 124.609ZM373.895 104.833C372.577 105.113 371.2 105.343 369.754 105.513C368.309 105.691 366.855 105.895 365.384 106.116C363.913 106.346 362.604 106.712 361.439 107.222C360.274 107.732 359.322 108.446 358.591 109.381C357.86 110.317 357.494 111.592 357.494 113.216C357.494 114.279 357.706 115.18 358.14 115.911C358.565 116.642 359.126 117.237 359.807 117.696C360.487 118.156 361.303 118.479 362.238 118.683C363.173 118.887 364.126 118.989 365.086 118.989C367.212 118.989 369.031 118.7 370.553 118.113C372.075 117.535 373.308 116.795 374.269 115.911C375.23 115.027 375.935 114.066 376.394 113.029C376.854 111.991 377.075 111.014 377.075 110.104V103.498C376.267 104.101 375.204 104.552 373.886 104.824L373.895 104.833Z" fill="#F5333F"/>
<path d="M397.812 69.5653V123.776H391.358V69.5653H397.812Z" fill="#F5333F"/>
<path d="M422.017 84.5293V90.2258H414.195V114.593C414.195 115.35 414.255 115.962 414.382 116.413C414.51 116.872 414.748 117.22 415.105 117.475C415.462 117.731 415.955 117.892 416.584 117.969C417.214 118.045 418.038 118.079 419.05 118.079H422.009V123.776H417.078C415.411 123.776 413.974 123.665 412.793 123.436C411.602 123.206 410.641 122.789 409.91 122.186C409.179 121.582 408.635 120.715 408.278 119.601C407.921 118.487 407.751 117.016 407.751 115.197V90.2173H401.068V84.5208H407.751V72.7537H414.204V84.5208H422.026L422.017 84.5293Z" fill="#F5333F"/>
<path d="M432.535 69.5653V90.2937H432.688C433.189 89.0779 433.904 88.0577 434.813 87.2159C435.723 86.3827 436.752 85.694 437.891 85.1669C439.03 84.6397 440.221 84.2401 441.462 83.9936C442.703 83.7385 443.902 83.611 445.067 83.611C447.652 83.611 449.803 83.9681 451.52 84.6738C453.238 85.3794 454.632 86.3742 455.695 87.6325C456.758 88.8994 457.506 90.4043 457.931 92.1472C458.365 93.8902 458.577 95.8287 458.577 97.9543V123.767H452.124V97.1976C452.124 94.7659 451.418 92.8444 449.998 91.4245C448.578 90.0047 446.631 89.299 444.149 89.299C442.176 89.299 440.467 89.6051 439.022 90.2087C437.577 90.8124 436.378 91.6796 435.417 92.7934C434.456 93.9072 433.734 95.208 433.257 96.7044C432.773 98.2008 432.535 99.8333 432.535 101.602V123.767H426.081V69.5568H432.535V69.5653Z" fill="#F5333F"/>
<path d="M25.9574 89.9877C24.1804 88.3213 21.7062 87.4796 18.5179 87.4796C16.2393 87.4796 14.2413 87.9642 12.5238 88.925C10.8064 89.8857 9.37798 91.1525 8.23867 92.717C7.09937 94.2899 6.24065 96.0668 5.65399 98.0734C5.06734 100.071 4.77826 102.112 4.77826 104.186C4.77826 106.261 5.06734 108.302 5.65399 110.3C6.23214 112.298 7.09937 114.083 8.23867 115.656C9.37798 117.229 10.8064 118.496 12.5238 119.448C14.2413 120.409 16.2478 120.893 18.5179 120.893C19.9888 120.893 21.3746 120.613 22.6925 120.06C24.0103 119.508 25.1751 118.734 26.1869 117.748C27.1987 116.761 28.0319 115.588 28.6951 114.219C29.3497 112.85 29.7579 111.362 29.9109 109.738H34.6977C34.0345 114.5 32.2915 118.207 29.4603 120.859C26.629 123.521 22.9816 124.847 18.5264 124.847C15.5421 124.847 12.8979 124.303 10.5938 123.215C8.28969 122.126 6.35118 120.647 4.78676 118.776C3.21385 116.906 2.02353 114.712 1.21582 112.213C0.408105 109.704 0 107.035 0 104.203C0 101.372 0.408105 98.7025 1.21582 96.1944C2.02353 93.6862 3.21385 91.5011 4.78676 89.6306C6.35968 87.7601 8.28969 86.2637 10.5938 85.15C12.8979 84.0362 15.5421 83.4835 18.5264 83.4835C22.7265 83.4835 26.2804 84.5973 29.1967 86.8249C32.1045 89.0525 33.8389 92.4194 34.4001 96.9256H29.6133C28.9586 93.9923 27.7428 91.6882 25.9659 90.0132L25.9574 89.9877Z" fill="white"/>
<path d="M43.7185 69.5653V91.3566H43.8716C44.7813 88.9759 46.3968 87.0629 48.7264 85.626C51.056 84.1807 53.6067 83.458 56.3954 83.458C59.1841 83.458 61.4202 83.8151 63.2652 84.5208C65.1102 85.2264 66.5896 86.2297 67.7034 87.522C68.8172 88.8144 69.5994 90.3958 70.0585 92.2663C70.5176 94.1368 70.7387 96.2368 70.7387 98.5665V123.776H65.9519V99.3317C65.9519 97.6652 65.7989 96.1093 65.4928 94.6639C65.1867 93.2185 64.6596 91.9687 63.8944 90.9059C63.1292 89.8432 62.1089 89.0099 60.8166 88.3978C59.5242 87.7941 57.9173 87.488 55.9958 87.488C54.0743 87.488 52.3653 87.8281 50.8689 88.5168C49.3725 89.197 48.1057 90.1407 47.0769 91.3226C46.0397 92.5129 45.2234 93.9327 44.6453 95.5737C44.0586 97.2231 43.7441 99.0001 43.693 100.922V123.776H38.9148V69.5653H43.693H43.7185Z" fill="white"/>
<path d="M81.494 69.5653V77.2343H76.7073V69.5653H81.494ZM81.494 84.5973V123.776H76.7073V84.5973H81.494Z" fill="white"/>
<path d="M92.2408 69.5653V123.776H87.4541V69.5653H92.2408Z" fill="white"/>
<path d="M128.596 123.776V116.336H128.443C127.933 117.603 127.194 118.768 126.207 119.831C125.221 120.893 124.09 121.795 122.832 122.526C121.565 123.257 120.213 123.827 118.768 124.235C117.322 124.643 115.894 124.838 114.483 124.838C111.498 124.838 108.905 124.294 106.703 123.206C104.501 122.118 102.665 120.621 101.202 118.725C99.7313 116.829 98.6431 114.627 97.9374 112.119C97.2317 109.611 96.8746 106.967 96.8746 104.186C96.8746 101.406 97.2317 98.7621 97.9374 96.2539C98.6431 93.7457 99.7313 91.5437 101.202 89.6477C102.673 87.7517 104.501 86.2468 106.703 85.133C108.905 84.0192 111.498 83.4665 114.483 83.4665C115.954 83.4665 117.382 83.6451 118.768 83.9937C120.162 84.3507 121.463 84.8949 122.679 85.6261C123.895 86.3573 124.966 87.2585 125.901 88.3213C126.836 89.3841 127.559 90.6254 128.069 92.0453H128.222V69.5739H133.009V123.784H128.605L128.596 123.776ZM102.367 110.223C102.843 112.221 103.608 114.007 104.646 115.58C105.683 117.152 107.009 118.428 108.633 119.414C110.249 120.4 112.204 120.893 114.483 120.893C117.016 120.893 119.15 120.4 120.893 119.414C122.636 118.428 124.056 117.152 125.145 115.58C126.233 114.007 127.015 112.23 127.5 110.223C127.984 108.225 128.222 106.21 128.222 104.186C128.222 102.163 127.984 100.148 127.5 98.1499C127.015 96.1519 126.233 94.3664 125.145 92.7935C124.056 91.2291 122.636 89.9452 120.893 88.959C119.15 87.9727 117.008 87.4796 114.483 87.4796C112.204 87.4796 110.257 87.9727 108.633 88.959C107.009 89.9452 105.683 91.2291 104.646 92.7935C103.608 94.3664 102.852 96.1434 102.367 98.1499C101.882 100.148 101.644 102.163 101.644 104.186C101.644 106.21 101.882 108.225 102.367 110.223Z" fill="white"/>
<path d="M143.373 84.5973V93.7882H143.526C144.742 90.5999 146.63 88.1427 149.18 86.4252C151.731 84.7078 154.783 83.9171 158.329 84.0701V88.8569C156.152 88.7549 154.18 89.0439 152.411 89.7326C150.643 90.4128 149.112 91.3906 147.82 92.6574C146.528 93.9242 145.524 95.4291 144.819 97.1721C144.113 98.915 143.756 100.828 143.756 102.903V123.784H138.969V84.6058H143.373V84.5973Z" fill="white"/>
<path d="M164.008 110.835C164.484 112.68 165.258 114.338 166.321 115.809C167.384 117.28 168.727 118.496 170.342 119.456C171.958 120.417 173.913 120.902 176.192 120.902C179.686 120.902 182.416 119.992 184.388 118.173C186.361 116.353 187.73 113.922 188.486 110.886H193.273C192.261 115.341 190.399 118.785 187.696 121.208C184.992 123.64 181.157 124.855 176.192 124.855C173.106 124.855 170.436 124.311 168.183 123.223C165.93 122.135 164.093 120.638 162.682 118.742C161.262 116.846 160.216 114.644 159.528 112.136C158.847 109.628 158.499 106.984 158.499 104.203C158.499 101.619 158.839 99.0936 159.528 96.611C160.208 94.1283 161.262 91.9177 162.682 89.9707C164.102 88.0237 165.93 86.4508 168.183 85.2605C170.436 84.0701 173.106 83.475 176.192 83.475C179.278 83.475 182.008 84.1127 184.235 85.371C186.463 86.6378 188.274 88.2958 189.668 90.3448C191.062 92.3938 192.057 94.749 192.669 97.4017C193.273 100.063 193.528 102.758 193.426 105.487H163.286C163.286 107.213 163.524 108.99 164.008 110.844V110.835ZM187.696 96.2198C187.117 94.5449 186.293 93.0655 185.23 91.7817C184.167 90.4893 182.875 89.4521 181.361 88.6698C179.839 87.8876 178.122 87.4965 176.201 87.4965C174.279 87.4965 172.477 87.8876 170.963 88.6698C169.441 89.4521 168.157 90.4893 167.095 91.7817C166.032 93.074 165.182 94.5619 164.552 96.2624C163.915 97.9628 163.498 99.6888 163.303 101.466H188.656C188.605 99.6462 188.291 97.8948 187.704 96.2283L187.696 96.2198Z" fill="white"/>
<path d="M202.813 84.5973V91.3566H202.966C203.875 88.976 205.491 87.063 207.82 85.6261C210.15 84.1807 212.701 83.458 215.489 83.458C218.278 83.458 220.514 83.8151 222.359 84.5208C224.204 85.2265 225.684 86.2297 226.797 87.5221C227.911 88.8144 228.693 90.3958 229.153 92.2663C229.612 94.1368 229.833 96.2369 229.833 98.5665V123.776H225.046V99.3317C225.046 97.6653 224.893 96.1093 224.587 94.664C224.281 93.2186 223.754 91.9688 222.988 90.906C222.232 89.8432 221.203 89.01 219.911 88.3978C218.618 87.7942 217.011 87.4881 215.09 87.4881C213.168 87.4881 211.459 87.8282 209.963 88.5168C208.467 89.197 207.2 90.1408 206.171 91.3226C205.134 92.5129 204.317 93.9328 203.739 95.5737C203.153 97.2231 202.838 99.0001 202.787 100.922V123.776H198.009V84.5973H202.787H202.813Z" fill="white"/>
<path d="M262.277 92.2323C261.725 91.144 260.976 90.2428 260.041 89.5371C259.106 88.8314 258.026 88.3128 256.81 87.9812C255.595 87.6496 254.302 87.488 252.942 87.488C251.879 87.488 250.799 87.5986 249.719 87.8281C248.631 88.0577 247.628 88.4318 246.718 88.9674C245.808 89.4946 245.069 90.1918 244.516 91.059C243.955 91.9177 243.683 92.9805 243.683 94.2473C243.683 95.3101 243.946 96.2113 244.482 96.9425C245.009 97.6737 245.681 98.2944 246.497 98.8045C247.305 99.3147 248.189 99.7313 249.158 100.054C250.119 100.386 251.003 100.65 251.82 100.854L258.196 102.299C259.565 102.503 260.917 102.869 262.26 103.396C263.604 103.923 264.794 104.62 265.831 105.479C266.868 106.338 267.719 107.4 268.373 108.667C269.028 109.934 269.36 111.43 269.36 113.148C269.36 115.273 268.875 117.084 267.914 118.572C266.954 120.069 265.729 121.284 264.233 122.22C262.736 123.155 261.053 123.827 259.182 124.235C257.312 124.643 255.458 124.838 253.639 124.838C249.031 124.838 245.298 123.75 242.442 121.574C239.585 119.397 237.952 115.903 237.544 111.099H242.331C242.535 114.338 243.708 116.778 245.859 118.428C248.01 120.077 250.68 120.893 253.869 120.893C255.033 120.893 256.232 120.766 257.474 120.511C258.715 120.256 259.863 119.831 260.925 119.218C261.988 118.615 262.864 117.841 263.544 116.906C264.224 115.971 264.564 114.814 264.564 113.454C264.564 112.289 264.326 111.32 263.842 110.529C263.357 109.747 262.711 109.084 261.903 108.557C261.095 108.029 260.169 107.579 259.131 107.23C258.094 106.873 257.04 106.576 255.977 106.321L249.83 104.952C248.257 104.544 246.82 104.076 245.502 103.549C244.184 103.022 243.037 102.358 242.05 101.576C241.064 100.794 240.29 99.8333 239.738 98.694C239.177 97.5547 238.905 96.1518 238.905 94.4769C238.905 92.5044 239.347 90.8124 240.231 89.3925C241.115 87.9727 242.271 86.8419 243.683 85.9746C245.103 85.1159 246.684 84.4782 248.427 84.0786C250.17 83.6705 251.905 83.475 253.63 83.475C255.603 83.475 257.439 83.7301 259.131 84.2317C260.823 84.7418 262.32 85.524 263.612 86.5868C264.904 87.6496 265.925 88.9674 266.69 90.5318C267.447 92.1048 267.88 93.9497 267.982 96.0753H263.204C263.153 94.6044 262.847 93.3291 262.294 92.2408L262.277 92.2323Z" fill="white"/>
<path d="M239.721 72.7792L235.563 84.6228H232.562L235.045 72.7792H239.721V72.7792Z" fill="white"/>
</svg>
