<svg id="Layer_1" data-name="Layer 1" xmlns="http://www.w3.org/2000/svg" viewBox="0 0 1140.3 393.42"><defs><style>.cls-1,.cls-2{fill:#1886a2;}.cls-2{font-size:50px;font-family:Lato-BoldItalic, Lato;font-weight:700;font-style:italic;}</style></defs><path class="cls-1" d="M102.34,7.14a9,9,0,0,0-6.66-.35C63.39,17.78,39,38.48,23.2,68.31,7.8,97.35,0,136.35,0,184.21c0,39.63,7.3,72.28,21.69,97C37,307.6,57.14,321,81.58,321c7.48,0,13.91-1.51,19.1-4.48s9.84-7.69,14.62-14.65a9.29,9.29,0,0,0,.82-1.48,39.09,39.09,0,0,0,1.92-5.26,22.2,22.2,0,0,0,.81-5.87,26.78,26.78,0,0,0-3.57-13.5,27.88,27.88,0,0,0-9.86-10,9,9,0,0,0-7.86-.71c-1.53.58-3.57,1.45-6.2,2.63a25.85,25.85,0,0,1-5.6,2c-8.06-.09-15.36-7.12-21.72-20.89-7.46-16.13-11.24-37.74-11.24-64.23,0-23.46,1.84-44.45,5.46-62.37,3.5-17.32,8.39-30.66,14.55-39.66,4.47-6.6,12-14.12,22.29-22.34,15.16-12.1,19.22-15.68,21-17.33a9,9,0,0,0,2.8-6.52v-3a29.27,29.27,0,0,0-4.14-15.78A28,28,0,0,0,102.34,7.14Z"/><path class="cls-1" d="M187.46,80.52c-22.8,0-40.73,11.87-51.87,34.31-10.41,21-15.47,51.18-15.47,92.3,0,39.44,3.28,67,10,84.32,9.6,24.7,26.8,29.88,39.53,29.88,20.68,0,37.32-12.78,49.44-38,11.09-23.05,16.71-53.69,16.71-91.07,0-37-3.3-63.62-10.09-81.29C216,85.81,199.57,80.52,187.46,80.52ZM185,192.29c0,34.2-1.15,57.38-3.4,68.91-1.29,6.62-2.87,9.42-3.67,10.48-.81-1.14-2.3-4-3.58-10.57C172.09,249.52,171,228,171,197.17c0-23.58,1.3-41.83,3.87-54.26a52.5,52.5,0,0,1,4-12.9,38.08,38.08,0,0,1,2.67,8.38C183.82,149,185,167.12,185,192.29Z"/><path class="cls-1" d="M351.15,119.36c-2-8.42-4.63-14.68-8-19.16a31.26,31.26,0,0,0-14.72-10.68,9,9,0,0,0-8.1,1A191.38,191.38,0,0,0,304,103.24q-4.27,3.63-9.41,8.24A62.64,62.64,0,0,0,292,98.94a31.84,31.84,0,0,0-12.66-16.58A9,9,0,0,0,273.1,81a53.72,53.72,0,0,0-16.5,4.9,48,48,0,0,0-13,9.57,9,9,0,0,0-2.5,7.15c1.81,18.63,3.17,38.31,4,58.49s1.28,41.84,1.28,64.25c0,10.06-.16,21.58-.49,34.24s-.83,27.68-1.48,44.69a9,9,0,0,0,2.79,6.87,27.35,27.35,0,0,0,11.42,6.45,51.41,51.41,0,0,0,14.16,1.66c.63,0,2,.15,4.68.18,2.32,0,3.72-.12,5.06-.12a15.41,15.41,0,0,0,8.45-3,18.49,18.49,0,0,0,5.53-6.12,17.53,17.53,0,0,0,1.89-7.22c-.53-13-.92-25.25-1.18-36.3s-.4-20.47-.4-28.34c0-12.43.1-24.84.3-36.86.18-10.9.44-21.86.78-32.61a220.93,220.93,0,0,1,22.7-21.52,189.66,189.66,0,0,1,26.25-18A9,9,0,0,0,351.15,119.36Z"/><path class="cls-1" d="M462.46,10.62c-6.16-1.23-8.27-1.56-9.32-1.69a34.42,34.42,0,0,0-4.52-.36,42.59,42.59,0,0,0-16.42,3,44.32,44.32,0,0,0-13.82,9.5,9,9,0,0,0-2.68,6.52l.65,55.49a61.63,61.63,0,0,0-9.06-.72,49.58,49.58,0,0,0-22.06,5.15c-7.48,3.67-12.79,8.64-15.81,14.77-7.22,13.39-12.86,30.75-16.75,51.58-3.85,20.55-5.79,43.52-5.79,68.26,0,18.72,1.11,34.54,3.3,47,2.25,12.86,5.86,24.21,10.74,33.73a9,9,0,0,0,1.28,1.89,36.36,36.36,0,0,0,13.4,9.58,45.58,45.58,0,0,0,17.26,3,8.76,8.76,0,0,0,2.28-.3,92.7,92.7,0,0,0,18.3-6.78c.71-.37,1.42-.74,2.11-1.12,0,.06,0,.12.05.17a9,9,0,0,0,4.69,5.77,45.73,45.73,0,0,0,10.62,3.75A53.66,53.66,0,0,0,442.1,320h3a9,9,0,0,0,4.22-1l12.06-6.39a9,9,0,0,0,4.79-7.95V264.24c0-46.35.3-90.4.89-130.91s1.48-78.71,2.66-113.58A9,9,0,0,0,462.46,10.62Zm-46,113.61c-.15,35.3-.47,64.65-1,87.3-.46,21.1-1.07,39.21-1.83,54a11.94,11.94,0,0,1-2.62.47,40,40,0,0,1-6.66-.72c-1.39-.24-2.9-.54-4.51-.9-.66-6.07-1.16-12.24-1.5-18.43-.45-8.27-.68-17.15-.68-26.37,0-35.61,1.86-61.73,5.51-77.65,2.85-12.43,6.79-18,9.42-18A28.84,28.84,0,0,1,416.46,124.23Z"/><path class="cls-1" d="M538.28,79.54a9,9,0,0,0-5.23.61c-8.44,3.7-16.83,7.62-24.93,11.65s-16.12,8.3-23.75,12.62a9.22,9.22,0,0,0-2.45,2,26.58,26.58,0,0,0-3.26,4.62,12.91,12.91,0,0,0-1.62,6.07c0,6.08,2.52,11.88,7.29,16.79a24,24,0,0,0,17.53,7.61H503a9,9,0,0,0,4.19-1l14.57-7.67a34.27,34.27,0,0,1,4.51-1.89,15,15,0,0,1,1.59-.44c.63.49,2.62,2.47,5.06,9.09,2.6,7,4.23,15.85,4.87,26.26-20.34.58-35.53,7.24-45.19,19.81s-14.42,32-14.42,59.22c0,23.09,2.92,40,8.92,51.56,6.81,13.21,17.92,20.18,32.12,20.18A67.91,67.91,0,0,0,536,314.19q3.88-1,7.76-2.31a9,9,0,0,0,4.05,4.44,40.35,40.35,0,0,0,8.52,3.38,34.41,34.41,0,0,0,9,1.26,35.9,35.9,0,0,0,8.21-1,60.13,60.13,0,0,0,8.63-2.86,9,9,0,0,0,5.6-8.34q0-2.88.2-9c.92-40.15,1.38-69.23,1.38-86.43,0-80.47-7.74-97.57-10.29-103.19C571.48,93.39,557.75,83.09,538.28,79.54Zm1.43,186.69c-.72.08-1,.09-1.07.09-6.38,0-7.68-2.16-8.11-2.87-.72-1.2-3.06-6.59-3.06-25.89,0-9.51,1.52-16.81,4.4-21.09a10,10,0,0,1,6.94-4.58c.26,9.17.47,18.26.62,27.14C539.58,248.11,539.68,257.23,539.71,266.23Z"/><path class="cls-1" d="M726.73,297.12c-5.8-93.83-16.24-130-27.33-144.28a56.25,56.25,0,0,0,12-19.52c4.1-11.08,6.1-25.28,6.1-43.42,0-28.2-4.26-48.51-13-62.08C695,13.17,680.06,5.75,660,5.75A158.37,158.37,0,0,0,633.27,8a181.44,181.44,0,0,0-26.75,6.82,9,9,0,0,0-6.13,8.93c.91,20.47,1.61,42.83,2.07,66.47s.69,49.87.69,77.79c0,13.27-.13,41.4-.39,86-.13,22-.27,39.74-.4,52.75a9,9,0,0,0,5.86,8.53,58.71,58.71,0,0,0,9.62,2.76,49,49,0,0,0,8.94.81,64.63,64.63,0,0,0,8.4-.64c3.12-.42,7.23-1.2,12.56-2.4a9,9,0,0,0,7-9.18c-.92-20.48-1.61-40.05-2.07-58.16s-.69-33.43-.69-45.89V179c1.08-.07,2.11-.11,3.06-.11,2.08,0,4.88.27,6.38,1.56.58.51,2,2.23,3,7.22,0,.15.06.29.1.44,1.86,7.92,3.59,21.17,5.13,39.37,1.55,18.38,2.34,37.31,2.34,56.26V308a9,9,0,0,0,6.46,8.63,86,86,0,0,0,11.15,2.61,57.17,57.17,0,0,0,8.79.77,36.72,36.72,0,0,0,7-.84A73.72,73.72,0,0,0,715.92,316a18.34,18.34,0,0,0,5.75-5,37.26,37.26,0,0,0,3-4c1.18-1.88,2.57-7.3,2-9.76A.62.62,0,0,0,726.73,297.12ZM652.1,105.91c.06-13,.26-31.32.59-54.53a11.63,11.63,0,0,1,2-.2c5.67,0,7,2.25,7.94,4.55C663.89,59,666,69.14,666,101c0,23.77-3.14,30.27-4.1,31.7-1.8,2.67-5.87,3.79-9.93,4.19C652,126.9,652.05,116.52,652.1,105.91Z"/><path class="cls-1" d="M800.07,77.52c-22.8,0-40.74,11.87-51.87,34.31-10.41,21-15.47,51.18-15.47,92.3,0,39.44,3.27,67,10,84.32,9.61,24.7,26.81,29.88,39.54,29.88,20.68,0,37.31-12.78,49.44-38,11.09-23.05,16.71-53.69,16.71-91.07,0-37-3.3-63.62-10.09-81.29C828.65,82.81,812.18,77.52,800.07,77.52Zm-2.48,111.77c0,34.2-1.14,57.39-3.39,68.91-1.29,6.62-2.87,9.42-3.68,10.48-.8-1.14-2.29-4-3.57-10.57-2.25-11.58-3.39-33.1-3.39-63.94,0-23.58,1.3-41.84,3.87-54.26a52.5,52.5,0,0,1,4-12.9,38.63,38.63,0,0,1,2.67,8.38C796.43,146,797.59,164.12,797.59,189.29Z"/><path class="cls-1" d="M972.54,82.45a117.67,117.67,0,0,0-13.22-4.59,46.32,46.32,0,0,0-11.93-1.71,32.39,32.39,0,0,0-5.13.49c-1.68.28-4.42.81-8.14,1.57A9,9,0,0,0,927,86.12c-2.62,25.78-5.79,50.87-9.44,74.59q-.94,6.21-2,12.35-1.19-8.7-2.38-17.06c-3.3-22.91-6.85-44.59-10.54-64.42a9,9,0,0,0-8.29-7.34c-2-.12-4.09-.22-6.11-.29s-4.35-.1-6.91-.1c-6.69,0-12,.67-16.17,2.05a43,43,0,0,0-12.41,6.73,9,9,0,0,0-3.3,9.31c7.43,30.35,14.15,62,20,94.14,5.7,31.56,10.69,64.39,14.82,97.62-4.85,16.64-9.57,30.74-14,41.92a206.36,206.36,0,0,1-14.76,30.23,9,9,0,0,0,1.33,11A59.58,59.58,0,0,0,874,389.32a46.62,46.62,0,0,0,19.45,4.1h4.16a9,9,0,0,0,8.45-5.91A1316.17,1316.17,0,0,0,948,248.1c12-49.17,22.12-101.66,30-156A9,9,0,0,0,972.54,82.45Z"/><path class="cls-1" d="M1051.43,6.8a43.77,43.77,0,0,0-12.35-5.22A59.54,59.54,0,0,0,1024.74,0c-.81,0-1.91.07-3.69.22-1.43.14-2.15.16-2.44.16a9,9,0,0,0-4.41,1.15L1009.85,4a9,9,0,0,0-4.59,7.85v2.25c0,11.73-3.2,33.31-9.51,64.14a.43.43,0,0,0,0,.11l-.79,4.14A9,9,0,0,0,999.37,92a46.44,46.44,0,0,0,11.25,4.53A50.34,50.34,0,0,0,1023.16,98a9,9,0,0,0,8.2-5.3,358.23,358.23,0,0,0,15.11-39.22,277.4,277.4,0,0,0,9.1-37.59A9,9,0,0,0,1051.43,6.8Z"/><path class="cls-1" d="M1108.23,231.4h0c-1.54-7.57-4.6-18.28-9.37-32.77-2-6.08-4.81-14-8.58-24.28-10-27.74-10.74-34.88-10.74-36.41,0-4.74,3.22-16,24.74-38.43l2.92-3a9,9,0,0,0,1.94-9.7,39.6,39.6,0,0,0-9.71-14.66,39.85,39.85,0,0,0-14.9-8.2,9,9,0,0,0-7.3.83c-15.12,8.94-26.93,19.85-35.1,32.43a75.65,75.65,0,0,0-12.63,41.82c0,10.55,5,29.35,15.16,57.49a15.73,15.73,0,0,0,.59,1.48c5.45,14.72,9.1,25.6,10.84,32.33a67.4,67.4,0,0,1,2.48,16.35,48.17,48.17,0,0,1-4.7,20.35,86.33,86.33,0,0,1-15.06,21.64,9,9,0,0,0-1.62,9.73c3.69,8.38,7.13,13.7,10.81,16.74s8.77,5.17,15,6.17a8.93,8.93,0,0,0,5.11-.66c14-6.23,24.73-15.2,31.87-26.67s10.65-25.06,10.65-40.73A110.31,110.31,0,0,0,1108.23,231.4Z"/><text class="cls-2" transform="translate(1100.12 39.78)">®</text></svg>