<svg width="500" height="143" viewBox="0 0 500 143" fill="none" xmlns="http://www.w3.org/2000/svg">
<g clip-path="url(#clip0_266_871)">
<path d="M209.88 78.9399H208.56C208.4 82.0399 208.48 85.7799 205.34 90.2599C202.98 93.6599 199.6 96.0599 192.66 96.0599C185.72 96.0599 182.94 92.9199 181.02 90.3199C177.62 85.7799 176.9 78.4599 176.9 69.0799H221.44C221.24 54.4399 222.12 40.6199 215.5 31.6999C210.12 24.4199 202.6 22.1399 192.62 22.1399C182.68 22.1399 176.06 24.1399 170.1 31.7799C163.28 40.5399 163.7 55.1999 163.7 57.7799C163.7 59.8399 163.68 68.3799 163.68 73.2399C163.68 86.6799 165.6 92.5999 169.72 97.7999C175.6 105.22 184 107.22 192.6 107.22C201.2 107.22 210.54 105.18 215.78 97.8199C219.38 92.7599 221.3 86.7599 221.44 78.8599H209.88V78.9399V78.9399ZM179.18 40.3199C181.6 35.4799 185.38 33.3399 192.56 33.3399C199.74 33.3399 203.52 35.4799 205.94 40.3199C208.42 45.2599 208.36 55.0599 208.36 57.7399H176.84C176.84 55.0999 176.7 45.2599 179.18 40.3199Z" fill="white"/>
<path d="M500 57.8201C500 55.2401 500.44 40.5401 493.66 31.7801C487.76 24.1401 479.1 22.1201 471.22 22.1201C463.32 22.1201 454.94 24.1201 449.02 31.7801C442.26 40.5401 442.68 55.2001 442.68 57.8201V71.6001C442.68 74.1801 442.24 88.8801 449.02 97.6401C454.92 105.28 463.3 107.3 471.22 107.3C479.14 107.3 487.76 105.3 493.66 97.6401C500.42 88.8801 500 74.2201 500 71.6001V57.8201ZM486.88 71.6401C486.88 74.3001 486.42 83.4801 484.08 88.4201C481.78 93.2601 478.42 96.0201 471.4 96.0201C464.36 96.0201 460.96 93.2401 458.66 88.4201C456.3 83.4801 455.86 74.3001 455.86 71.6401V57.7401C455.86 55.0801 456.32 45.9001 458.66 40.9601C460.96 36.1201 464.34 33.3601 471.4 33.3601C478.44 33.3601 481.78 36.1401 484.08 40.9601C486.44 45.9001 486.88 55.0801 486.88 57.7401V71.6401Z" fill="white"/>
<path d="M235.24 3.36011V106.96L248.32 99.4401V3.36011H235.24Z" fill="white" stroke="white" stroke-miterlimit="10"/>
<path d="M420.96 82.52V35.14H436.5V23.76H420.96V0L407.88 7.52V23.76H394.84V35.14H407.88V82.52L407.86 88.06C407.86 104.12 416.74 106.26 425.94 106.26C429.92 106.26 436.52 104.7 436.52 104.7V93.52C436.52 93.52 430.46 94.26 427.34 94.54C423.58 94.9 420.94 93.02 420.94 89.34V83.02L420.96 82.52Z" fill="white" stroke="white" stroke-miterlimit="10"/>
<path d="M306.04 23.7001V29.5001C300.74 24.2801 293.7 22.0801 288.24 22.0801C281.76 22.0801 273.54 24.0601 268.08 31.5601C261.8 40.1601 262.18 54.5401 262.18 57.1001C262.18 59.1401 262.16 67.5001 262.16 72.2801C262.16 85.4601 263.92 91.2801 267.74 96.4001C273.18 103.68 280.6 105.66 288.26 105.66C294.2 105.66 300.26 103.88 305.38 99.2801V109.04C305.48 115.82 305.3 120.98 302.86 124.32C300.38 127.68 295.82 130.06 291.6 130.06C287.38 130.06 283.08 127.94 280.7 124.56C278.64 121.64 278.04 119.04 277.62 113.74H264.68C264.68 121.62 266.6 127.64 270.2 132.7C275.44 140.06 285.04 142.18 291.66 142.18C298.28 142.18 305.06 141.16 311.58 134.28C317.9 127.64 318.5 121.16 318.5 109.62V23.7001H306.04ZM302.92 85.7601C300.76 90.9601 296.28 94.3801 290.2 94.3801C283.94 94.3801 280.34 92.4601 277.9 86.3001C275.4 80.0401 275.2 73.8801 275.2 64.4401V63.2601C275.2 53.8201 274.96 48.3801 277.48 42.1201C279.96 35.9601 283.96 33.3401 290.2 33.3401C296.82 33.3401 301.04 37.3801 303.22 42.5601C305.82 48.8001 305.3 59.8601 305.3 63.2601V64.4401C305.3 67.8801 305.52 79.5201 302.92 85.7601Z" fill="white"/>
<path d="M384.12 31.5401C378.18 23.2201 369.84 22.1201 361.24 22.1201C352.64 22.1201 343.88 24.1601 338.06 31.5201C334.82 35.6201 333.7 39.9201 333.3 46.7601H346.52C346.72 43.5201 347.26 40.5201 348.8 38.2801C351.1 34.8401 355.5 33.3601 360.56 33.3601C367.5 33.3601 371.14 35.2801 373.06 40.3001C374.84 44.9401 374.46 52.1601 374.46 54.9601C374.46 54.9601 368.52 55.0201 366.42 55.0401C360.92 55.1201 331.16 54.6601 331.16 81.4601C331.16 98.7601 341.02 107.28 354.54 107.28C364.5 107.28 371.08 103.22 375.14 99.2001V105.66H387.58V51.5801C387.62 41.2801 387.5 36.2801 384.12 31.5401ZM356.98 96.0601C347.66 96.0601 344.7 88.8001 344.7 81.7801C344.7 66.7601 360.08 66.7201 362.64 66.6801C367.52 66.5401 374.42 66.3601 374.42 66.3601C374.42 66.3601 374.52 71.4401 374.52 78.1401C374.52 84.7001 368.74 96.0601 356.98 96.0601Z" fill="white"/>
<path d="M141.18 83.04C135.48 116.6 106.26 142.16 71.08 142.16C31.84 142.2 0 110.36 0 71.08C0 31.84 31.84 0 71.1 0C102.94 0 129.88 20.92 138.94 49.76L125.62 56.74C119.28 32.58 97.28 14.74 71.12 14.74C40.02 14.76 14.78 40 14.78 71.12C14.78 102.24 40.02 127.46 71.14 127.46C96.18 127.46 117.42 111.1 124.76 88.48L56.58 49.04V90.42L79.98 77.16L91.46 84.36L56.14 105.28L43.54 97.18L43.76 41.84L57.06 34.64L127.34 75.06L141.18 83.04Z" fill="white" stroke="white" stroke-miterlimit="10"/>
</g>
<defs>
<clipPath id="clip0_266_871">
<rect width="500" height="142.2" fill="white"/>
</clipPath>
</defs>
</svg>
