<svg width="500" height="188" viewBox="0 0 500 188" fill="none" xmlns="http://www.w3.org/2000/svg">
<g clip-path="url(#clip0_266_879)">
<path fill-rule="evenodd" clip-rule="evenodd" d="M245.491 0.000559008C274.428 -0.0318136 297.163 1.33641 321.791 5.52582C348.678 10.0999 373.754 16.2697 393.947 27.8421C395.439 28.6971 396.578 29.255 398.516 30.4985C406.387 35.5535 416.184 43.6504 418.069 54.5153C419.592 63.2998 415.485 70.455 411.055 75.5557C406.456 80.8496 400.816 84.879 394.796 88.3077C370.241 102.299 337.865 109.747 304.256 113.599C288.638 115.389 272.26 116.681 253.036 116.681C234.347 116.681 217.843 115.927 201.922 114.343C169.542 111.124 135.628 104.336 110.107 91.3887C103.752 88.1658 97.8058 84.6467 92.4666 79.9126C87.3974 75.4186 82.5652 69.8448 81.2028 62.1667C78.9128 49.2671 88.0038 39.8847 95.5486 34.1119C103.634 27.924 114.039 22.7548 124.028 19.0224C144.79 11.2625 169.896 6.10663 194.802 3.08168C211.401 1.066 226.131 0.0215057 245.491 0.000559008ZM246.236 11.5833C223.773 11.5833 202.44 15.6613 183.751 22.5292C174.598 25.8921 166.464 30.0225 159.308 36.0248C153.064 41.2634 145.681 49.6631 147.406 61.2098C148.895 71.1692 156.814 78.2731 163.559 82.9948C171.089 88.2648 180.122 92.2495 189.277 95.2145C209.056 101.622 231.213 104.381 254.099 104.141C275.841 103.913 298.711 100.143 316.69 93.0903C325.555 89.6121 334.061 85.3541 341.024 79.488C347.437 74.0865 354.244 65.3621 352.502 54.5153C350.941 44.7997 343.532 37.6957 336.349 32.7303C328.45 27.2689 320.076 23.6746 310.633 20.5097C296.173 15.6642 279.743 12.7897 263.982 12.0089C259.037 11.7633 252.533 11.2939 246.447 11.5833C246.377 11.5871 246.306 11.5833 246.236 11.5833V11.5833Z" fill="white"/>
<path fill-rule="evenodd" clip-rule="evenodd" d="M22.65 138.572C32.2409 138.551 40.7739 138.464 48.5786 140.061C51.1951 140.595 54.1353 141.607 55.0608 143.566C55.9291 145.405 55.5921 148.453 55.5921 152.918C55.5921 161.204 55.5921 168.804 55.5921 177.465C55.5921 179.036 55.7911 181.018 55.3797 182.142C54.101 185.626 47.1466 186.45 43.5837 186.817C33.9899 187.809 22.5767 187.744 12.7668 186.817C8.92014 186.454 2.03903 185.628 0.546079 182.353C-0.34227 180.406 0.120469 175.808 0.120469 172.896C0.120469 165.822 0.120469 160.646 0.120469 153.344C0.120469 149.894 -0.396542 145.339 0.970726 143.248C2.35609 141.129 6.9035 139.952 10.6416 139.422C14.8119 138.83 17.993 138.582 22.65 138.572ZM21.7997 144.629C21.4151 145.412 21.5865 147.644 21.5865 148.987C21.5865 157.188 21.5865 164.08 21.5865 172.152C21.5865 174.896 21.0456 179.656 21.9054 181.185C22.7957 182.766 25.2559 182.748 27.7506 182.779C29.7253 182.803 32.7369 182.922 33.7014 181.291C34.5745 179.813 34.0204 175.406 34.0204 172.471C34.0204 164.954 34.0204 161.223 34.0204 153.981C34.0204 151.992 34.5184 146.372 33.9138 144.842C33.1425 142.889 28.0324 143.019 26.2624 143.142C24.9922 143.229 22.4596 143.286 21.7997 144.629V144.629Z" fill="white"/>
<path fill-rule="evenodd" clip-rule="evenodd" d="M105.644 139.103C114.255 139.101 123.778 139.104 132.742 139.103C138.963 154.915 145.208 170.703 151.339 186.605C143.192 186.605 135.045 186.605 126.897 186.605C125.553 182.706 124.327 178.692 122.966 174.808C118.387 174.639 113.09 174.627 108.513 174.808C107.205 178.566 106.206 182.632 105.114 186.605C99.5512 186.605 93.9902 186.605 88.4287 186.605C92.5676 174.793 96.9437 162.964 101.18 151.112C102.603 147.133 104.242 142.616 105.644 139.103V139.103ZM109.576 169.282C113.299 169.108 117.755 169.108 121.478 169.282C119.36 163.041 117.32 156.721 114.995 150.687C113.29 156.986 111.292 162.994 109.576 169.282V169.282Z" fill="white"/>
<path fill-rule="evenodd" clip-rule="evenodd" d="M210.529 158.232C215.586 153.006 220.874 147.128 226.15 141.335C226.789 140.633 227.925 139.257 228.488 139.103C229.755 138.756 232.011 139.103 233.483 139.103C238.338 139.103 243.48 139.191 248.253 138.997C248.459 139.569 247.673 139.869 247.403 140.166C241.893 146.233 235.971 152.673 230.294 158.657C235.919 167.945 241.934 177.41 247.298 186.605C239.115 186.605 230.932 186.605 222.749 186.605C218.414 179.959 214.741 172.651 210.529 165.883C210.529 172.79 210.529 179.697 210.529 186.605C202.807 186.605 195.085 186.605 187.363 186.605C187.291 171.265 187.504 154.726 187.256 139.21C194.626 138.963 203.018 139.172 210.209 139.103C210.792 139.042 210.529 140.387 210.529 141.122C210.529 146.524 210.529 152.766 210.529 158.232V158.232Z" fill="white"/>
<path fill-rule="evenodd" clip-rule="evenodd" d="M283.747 139.103C291.433 139.103 299.12 139.103 306.807 139.103C306.806 152.741 306.807 166.945 306.807 180.228C314.458 180.298 322.392 180.087 329.867 180.335C329.867 182.425 329.867 184.514 329.867 186.605C314.422 186.605 298.978 186.605 283.534 186.605C283.78 172.037 283.572 154.797 283.64 139.316C283.427 139.221 283.687 138.85 283.747 139.103Z" fill="white"/>
<path fill-rule="evenodd" clip-rule="evenodd" d="M364.403 139.103C379.529 139.103 394.653 139.103 409.779 139.103C409.779 141.122 409.779 143.142 409.779 145.161C402.411 145.161 395.044 145.161 387.676 145.161C387.427 149.802 387.64 154.901 387.57 159.719C393.237 159.79 399.188 159.578 404.679 159.826C404.719 161.875 404.602 163.836 404.785 165.352C399.081 165.352 393.379 165.352 387.676 165.352C387.676 170.381 387.676 175.411 387.676 180.442C394.795 180.689 402.376 180.477 409.674 180.548C409.674 182.566 409.674 184.586 409.674 186.605C394.548 186.605 379.423 186.605 364.298 186.605C364.298 170.842 364.298 155.078 364.298 139.316C364.252 139.112 364.37 138.932 364.403 139.103Z" fill="white"/>
<path fill-rule="evenodd" clip-rule="evenodd" d="M499.893 138.997C499.984 138.977 499.993 139.039 500 139.103C493.735 149.027 486.693 159.094 480.127 169.07C480.197 174.778 479.989 181.321 480.235 186.498C472.653 186.746 464.612 186.533 456.855 186.605C456.849 182.448 456.855 178.059 456.855 173.534C456.855 172.085 457.124 170.437 456.855 169.177C456.619 168.071 455.133 166.563 454.305 165.352C448.341 156.615 442.408 147.706 436.771 139.103C444.954 139.103 453.136 139.103 461.318 139.103C464.938 144.799 468.225 150.828 471.626 156.744C475.191 150.957 478.499 144.913 482.04 139.103C487.957 139.033 494.155 139.244 499.893 138.997Z" fill="white"/>
</g>
<defs>
<clipPath id="clip0_266_879">
<rect width="500" height="187.537" fill="white"/>
</clipPath>
</defs>
</svg>
