<svg width="500" height="500" viewBox="0 0 500 500" fill="none" xmlns="http://www.w3.org/2000/svg">
<g clip-path="url(#clip0_265_820)">
<path d="M249.973 7.80311e-05C386.49 -0.885164 500.627 111.26 500 251.085C499.39 388.092 387.148 499.973 249.779 499.763C112.005 499.552 2.25675 388.13 0.0382463 254.119C-2.30981 112.712 112.745 -0.831186 249.973 7.80311e-05ZM496.406 250.34C496.967 113.64 386.047 3.35212 250.465 3.30894C111.886 3.26576 5.3443 114.963 3.55223 245.903C1.6414 385.518 114.958 496.384 250.076 496.303C386.452 496.222 496.459 384.946 496.406 250.346V250.34Z" fill="#00DB00"/>
<path d="M249.444 419.314C157.8 419.643 80.1905 345.164 80.3146 249.784C80.4388 155.36 155.571 80.9512 248.467 80.174C343.842 79.3751 419.746 155.425 419.735 250.141C419.729 344.079 343.113 420.118 249.444 419.314ZM250.438 83.661C157.028 83.6448 83.5749 159.349 83.7962 250.459C84.0175 341.682 160.046 419.718 257.234 415.805C343.21 412.345 416.021 341.266 416.162 250.205C416.307 156.607 340.463 83.7851 250.438 83.661V83.661Z" fill="#00DB00"/>
<path d="M322.687 55.8783C320.938 59.5812 319.184 63.2841 317.451 66.9924C316.312 69.4322 315.146 71.8612 314.094 74.3442C313.484 75.7855 312.712 76.1903 311.184 75.5965C308.847 74.6897 306.423 73.988 304.032 73.2215C302.85 72.8436 302.111 72.3255 302.775 70.895C308.923 57.6164 315.044 44.3324 321.181 31.0483C321.289 30.8162 321.521 30.6381 321.883 30.2117C324.571 31.1887 327.416 32.0361 330.055 33.2992C330.913 33.7095 331.626 35.1777 331.761 36.241C332.635 43.0855 333.321 49.9569 334.098 56.8175C334.39 59.3653 334.757 61.9077 335.188 65.1787C337.644 63.6296 339.604 62.4852 341.472 61.2059C347.479 57.109 353.471 52.9905 359.419 48.8072C360.823 47.8194 361.983 47.5872 363.532 48.5589C371.856 53.7893 371.014 51.193 367.289 59.5488C362.318 70.6899 357.217 81.777 352.165 92.8857C351.868 93.5335 351.544 94.1704 351.085 95.1151C348.035 93.269 345.018 91.5471 342.157 89.5985C341.731 89.307 341.72 87.8388 342.022 87.1371C344.376 81.7069 346.869 76.336 349.282 70.9328C349.703 69.9936 349.946 68.9734 350.529 67.1975C348.964 67.9748 348.073 68.2987 347.312 68.8115C342.632 71.9854 337.979 75.2079 333.315 78.4142C330.735 80.1901 326.644 78.3818 326.233 75.2511C325.499 69.6481 324.819 64.0398 324.091 58.4369C323.983 57.5894 323.734 56.7635 323.551 55.9269L322.698 55.8621L322.687 55.8783Z" fill="#00DB00"/>
<path d="M325.381 418.331C330.714 415.244 335.853 412.35 340.91 409.311C344.775 406.99 348.672 404.864 353.217 404.146C359.339 403.174 364.504 404.901 368.342 409.738C372.266 414.688 373.875 420.258 370.976 426.315C369.827 428.706 370.059 429.931 372.66 431.016C376.774 432.727 380.725 434.838 385.34 437.062C381.723 439.501 378.587 441.693 375.348 443.723C374.863 444.025 373.826 443.723 373.168 443.426C369.567 441.801 366.016 440.084 362.437 438.417C360.364 437.45 355.085 439.053 354.184 441.061C353.935 441.617 354.286 442.6 354.642 443.231C356.381 446.362 358.21 449.439 360.245 452.942C356.483 454.858 352.861 456.699 348.953 458.691C341.067 445.191 333.316 431.912 325.386 418.337L325.381 418.331ZM352.715 414.267C349.25 416.199 345.768 418.099 342.362 420.134C342.071 420.307 342.055 421.494 342.325 421.986C344.041 425.116 345.822 428.209 347.717 431.232C348.03 431.729 349.288 432.247 349.639 432.02C352.769 430.001 356.035 428.085 358.766 425.597C360.72 423.821 360.245 421.154 359.058 418.839C357.816 416.41 355.835 415.093 352.721 414.267H352.715Z" fill="#00DB00"/>
<path d="M151.663 459.014C147.809 456.996 144.381 455.252 141.019 453.384C140.538 453.12 140.16 452.278 140.117 451.679C139.831 447.744 139.615 443.809 139.448 439.868C139.34 437.364 135.723 433.402 133.273 433.488C132.62 433.51 131.815 434.395 131.394 435.08C129.521 438.119 127.767 441.234 125.764 444.667C122.256 442.232 118.979 439.96 115.357 437.445C123.298 424.047 131.141 410.817 139.119 397.344C144.695 400.669 150.076 403.687 155.242 407.033C158.454 409.111 161.692 411.352 164.299 414.104C168.564 418.606 169.773 424.193 167.592 430.109C165.401 436.052 161.385 440.073 154.788 441.067C150.389 441.731 150.519 441.817 150.951 446.335C151.328 450.345 151.415 454.383 151.663 459.014V459.014ZM156.224 422.838C156.197 419.902 154.826 418.407 150.276 415.535C143.863 411.492 144.883 412.485 141.796 417.586C137.192 425.181 137.44 425.807 145.893 429.294C146.222 429.429 146.546 429.591 146.886 429.704C151.739 431.324 156.273 427.993 156.23 422.838H156.224Z" fill="#00DB00"/>
<path d="M182.706 28.5545C189.329 26.9406 195.644 25.2942 202.008 23.8908C206.634 22.8706 211.346 22.2175 215.994 21.2944C217.484 20.9976 218.223 21.4564 218.488 22.8814C218.698 24.0257 218.909 25.1755 219.13 26.3198C219.972 30.6704 220.749 30.2494 215.665 31.4963C210.526 32.754 205.344 33.8498 200.146 34.8538C197.695 35.3288 197.085 36.5541 197.663 38.8266C198.985 44.0894 198.106 43.9653 203.692 42.7616C208.674 41.6874 213.646 40.5593 219.038 39.3663C219.756 42.3513 220.431 45.1744 221.203 48.3969C216.35 49.498 211.767 50.5938 207.158 51.5762C199.455 53.2171 200.977 52.6558 202.467 60.1156C202.812 61.8375 204.167 61.5892 205.49 61.2923C211.967 59.8403 218.455 58.426 224.938 57.0064C225.37 56.9092 225.813 56.8661 226.676 56.7311C227.297 59.5326 227.977 62.2855 228.447 65.0708C228.522 65.5188 227.707 66.5066 227.184 66.6037C221.365 67.6725 215.476 68.4174 209.695 69.6535C204.011 70.868 198.424 72.5413 192.567 74.0743C189.318 59.0954 186.079 44.1434 182.7 28.5653L182.706 28.5545Z" fill="#00DB00"/>
<path d="M318.439 431.421C312.788 432.97 307.357 434.46 301.927 435.944C301.754 435.993 301.571 436.004 301.398 436.047C295.412 437.59 295.32 437.806 297.263 443.614C297.765 445.115 298.483 445.585 300.06 445.153C305.322 443.701 310.645 442.443 315.891 440.926C317.656 440.414 318.391 440.808 318.693 442.54C318.909 443.776 319.276 444.985 319.605 446.195C320.458 449.309 320.085 449.73 316.858 450.502C312.064 451.657 307.32 453.034 302.548 454.264C301.01 454.658 300.54 455.425 300.945 457.012C303.023 465.173 302.445 463.646 308.853 461.999C314.574 460.531 320.258 458.933 326.336 457.292C327.157 460.348 328.004 463.149 328.587 465.999C328.684 466.463 327.723 467.516 327.081 467.694C316.906 470.582 306.699 473.362 296.508 476.19C294.338 476.795 293.156 476.428 292.497 473.885C288.886 460.013 285.064 446.195 281.227 432.009C282.992 431.583 284.53 431.264 286.036 430.849C295.023 428.382 304.022 425.964 312.971 423.367C316.069 422.471 316.156 422.342 316.939 425.489C317.408 427.389 317.899 429.283 318.445 431.415L318.439 431.421Z" fill="#00DB00"/>
<path d="M237.823 65.7347C240.15 61.1844 242.034 57.3411 244.063 53.5734C249.72 43.0639 255.453 32.5921 261.12 22.0826C262.081 20.3013 263.139 18.9896 265.482 19.4052C267.155 19.7021 268.888 19.8964 270.572 19.7993C273.999 19.605 275.306 21.4078 276.326 24.4468C281.092 38.6485 286.107 52.7692 291.024 66.9222C291.316 67.7589 291.548 68.6118 291.931 69.8479C287.688 69.0382 283.753 68.3365 279.851 67.4782C279.23 67.3433 278.62 66.6038 278.264 65.9938C277.821 65.2327 277.632 64.3205 277.351 63.473C276.146 59.8349 273.658 57.8827 269.886 57.6164C265.946 57.3357 262.005 56.8877 258.065 56.8499C256.91 56.8391 254.999 57.719 254.702 58.6096C252.899 64.0398 249.412 66.1396 243.793 65.2705C242.104 65.0114 240.295 65.5134 237.829 65.7347H237.823ZM268.11 33.7742L267.101 33.6879C264.996 37.7956 262.848 41.8818 260.856 46.0381C260.683 46.3943 261.444 47.706 261.876 47.7654C264.802 48.1432 267.754 48.3861 270.701 48.4509C271.166 48.4617 272.175 47.1932 272.056 46.7614C270.847 42.4053 269.454 38.0979 268.116 33.7796L268.11 33.7742Z" fill="#00DB00"/>
<path d="M251.89 443.183C249.439 443.183 246.983 443.145 244.532 443.193C240.317 443.274 236.101 443.496 231.891 443.442C231.173 443.431 229.915 442.411 229.856 441.768C229.618 439.199 229.759 436.597 229.759 433.704C231.772 433.704 233.634 433.537 235.464 433.731C245.229 434.762 254.983 434.762 264.742 433.715C265.276 433.655 265.816 433.628 266.356 433.618C269.67 433.531 269.681 433.726 269.751 437.024C269.816 439.89 268.887 442.06 267.014 444.241C260.942 451.323 255.08 458.593 249.158 465.805C248.381 466.75 247.701 467.78 246.611 469.27C248.295 469.47 249.39 469.713 250.481 469.708C256.321 469.686 262.167 469.675 268.007 469.513C270.183 469.454 271.133 470.118 270.982 472.401C270.831 474.711 270.949 477.043 270.949 479.742C257.206 481.108 243.642 481.243 229.796 479.758C229.661 475.629 229.062 471.931 232.269 468.374C238.568 461.384 244.36 453.94 250.351 446.67C251.01 445.871 251.56 444.991 252.159 444.143L251.9 443.177L251.89 443.183Z" fill="#00DB00"/>
<path d="M216.269 478.457C212.264 477.713 208.664 477.124 205.117 476.304C204.54 476.169 203.962 475.041 203.806 474.285C203.352 472.099 203.288 469.821 202.705 467.683C202.435 466.696 201.458 465.438 200.54 465.157C195.401 463.592 190.203 462.21 184.978 460.974C184.082 460.763 182.738 461.314 181.966 461.956C180.887 462.852 180.136 464.153 179.273 465.303C176.536 468.936 176.525 468.984 172.272 467.489C169.999 466.69 167.792 465.724 165.125 464.666C167.198 462.01 169.071 459.565 170.992 457.158C178.668 447.555 186.382 437.985 194.025 428.36C195.169 426.919 196.216 426.358 198.106 427.043C200.626 427.961 203.255 428.76 205.9 429.084C208.448 429.397 209.085 430.806 209.393 432.938C210.191 438.427 211.077 443.906 211.924 449.39C213.306 458.334 214.682 467.279 216.053 476.223C216.134 476.746 216.156 477.275 216.264 478.468L216.269 478.457ZM201.139 455.625C200.572 449.925 200.745 444.932 198.856 439.275C195.412 443.911 192.465 447.873 189.064 452.451C193.339 453.574 196.94 454.518 201.134 455.625H201.139Z" fill="#00DB00"/>
<path d="M173.254 81.7499C169.524 83.6014 165.929 85.3827 162.086 87.2935C158.988 81.0698 155.97 74.9865 152.942 68.9139C151.064 65.1408 149.131 61.4002 147.296 57.6055C146.481 55.9268 145.482 55.6839 143.852 56.5367C140.446 58.3072 136.959 59.932 133.273 61.7294C131.955 58.9118 130.671 56.1751 129.208 53.0443C140.91 45.6817 153.12 39.6308 166.129 34.573C167.403 37.1801 168.58 39.5822 169.746 41.9842C170.572 43.6845 169.06 43.976 168.132 44.4618C165.589 45.7897 163.025 47.1067 160.391 48.2457C158.119 49.2281 157.789 50.4102 158.934 52.6395C163.43 61.4217 167.754 70.2958 172.131 79.1428C172.52 79.9309 172.833 80.7567 173.26 81.7391L173.254 81.7499Z" fill="#00DB00"/>
<path d="M106.543 123.038C102.991 127.486 99.9522 131.345 96.8215 135.124C96.449 135.572 95.58 135.744 94.9214 135.804C89.0378 136.344 83.1434 136.786 77.2652 137.369C75.608 137.531 74.8146 137.061 74.4421 135.399C73.1682 129.731 71.7378 124.096 70.4855 118.423C70.2696 117.451 70.2534 116.064 70.7878 115.357C74.2694 110.731 77.9237 106.235 81.9775 101.123C82.9761 105.948 83.7371 109.959 84.6332 113.937C86.6682 122.93 84.984 121.705 93.9444 122.056C97.9388 122.212 101.922 122.671 106.543 123.038V123.038Z" fill="#00DB00"/>
<path d="M449.736 308.145C445.541 302.38 441.579 296.95 437.644 291.509C437.348 291.099 436.991 290.516 437.067 290.09C437.931 285.269 438.875 280.46 439.917 275.003C442.67 277.604 445.072 279.807 447.404 282.085C449.072 283.715 450.815 285.313 452.202 287.164C453.66 289.107 455.063 288.8 456.818 287.812C461.503 285.167 466.215 282.576 470.927 279.969C471.235 279.801 471.575 279.699 472.374 279.37C471.694 283.418 470.749 287.115 470.528 290.861C470.193 296.524 467.251 299.66 462.21 301.743C457.929 303.514 453.93 305.965 449.736 308.151V308.145Z" fill="#00DB00"/>
<path d="M393.49 123.054C397.879 122.682 401.592 122.336 405.317 122.072C407.195 121.937 409.09 121.883 410.968 121.915C412.917 121.948 413.899 121.1 414.288 119.184C415.432 113.495 416.69 107.827 418.088 101.274C422.109 106.283 425.974 110.596 429.159 115.362C430.098 116.771 429.386 119.519 428.97 121.554C428.036 126.109 426.768 130.595 425.715 135.129C425.294 136.937 424.506 137.509 422.52 137.277C416.917 136.624 411.271 136.36 405.657 135.755C404.502 135.631 403.147 134.929 402.391 134.055C399.476 130.687 396.761 127.14 393.49 123.06V123.054Z" fill="#00DB00"/>
<path d="M35.2209 184.292C38.7133 188.989 41.6929 193.01 44.6887 197.015C47.6737 201.01 47.6629 200.961 52.3806 199.153C56.9363 197.409 61.5353 195.757 66.6902 193.847C65.3246 199.282 64.1694 203.957 62.9441 208.61C62.8254 209.074 62.3665 209.56 61.9347 209.808C56.0295 213.187 50.0973 216.523 43.8088 220.075C39.7497 214.779 35.6689 209.565 31.7393 204.232C31.1294 203.406 30.8541 201.965 31.0808 200.956C32.2737 195.633 33.6825 190.354 35.2101 184.292H35.2209Z" fill="#00DB00"/>
<path d="M464.823 184.168C466.356 190.484 467.764 196.076 469.022 201.706C469.189 202.456 468.795 203.541 468.299 204.194C464.612 209.047 460.807 213.808 457.098 218.644C456.186 219.837 455.387 219.826 454.157 219.097C449.066 216.075 443.911 213.165 438.805 210.164C438.141 209.775 437.299 209.209 437.116 208.566C435.815 203.924 434.665 199.239 433.294 193.884C437.904 195.536 442.119 196.912 446.227 198.548C452.85 201.188 451.798 201.641 456.208 195.881C458.971 192.276 461.595 188.562 464.817 184.174L464.823 184.168Z" fill="#00DB00"/>
<path d="M430.153 314.272C433.381 319.405 436.317 323.783 438.935 328.349C440.338 330.8 441.828 331.491 444.57 330.595C449.736 328.905 455.01 327.561 460.991 325.856C458.545 331.642 456.381 336.9 454.065 342.092C453.757 342.789 452.78 343.399 451.992 343.631C446.238 345.309 440.468 346.907 434.682 348.456C433.343 348.818 432.166 348.791 431.475 347.037C429.44 341.876 427.303 336.749 425.003 331.702C424.183 329.904 424.145 328.468 424.976 326.676C426.731 322.871 428.226 318.946 430.158 314.272H430.153Z" fill="#00DB00"/>
<path d="M82.7655 156.31C80.2448 161.319 78.064 165.718 75.7969 170.069C75.5648 170.517 74.8685 170.83 74.3233 171.003C68.4343 172.881 62.5399 174.771 56.6077 176.509C55.9708 176.698 54.6213 176.158 54.3406 175.591C51.5499 169.972 48.8942 164.293 46.2817 158.588C45.9794 157.924 45.9038 156.893 46.2061 156.261C48.6945 151.031 51.2962 145.86 54.0977 140.192C56.5699 145.72 58.7182 150.637 60.9691 155.511C62.7018 159.268 62.7288 159.085 66.869 158.41C71.8943 157.584 76.9629 157.06 82.7709 156.31H82.7655Z" fill="#00DB00"/>
<path d="M27.4434 279.224C33.1704 282.333 38.239 285.026 43.2374 287.839C45.078 288.875 46.3303 288.87 47.8579 287.121C51.5608 282.883 55.512 278.862 59.3661 274.754C59.6521 274.965 59.9436 275.17 60.2297 275.381C61.1581 280.266 62.1028 285.151 62.9718 290.046C63.0474 290.478 62.7019 291.067 62.405 291.471C58.47 296.929 54.5026 302.364 50.3031 308.14C44.3061 304.971 38.2228 301.797 32.1934 298.521C31.5673 298.181 30.9951 297.317 30.844 296.599C29.6835 290.996 28.6309 285.372 27.4434 279.218V279.224Z" fill="#00DB00"/>
<path d="M39.0698 325.769C42.5406 326.811 45.3367 327.669 48.1544 328.484C50.9936 329.305 53.8599 330.028 56.6829 330.897C58.4534 331.442 59.4952 330.865 60.429 329.31C62.8257 325.31 65.3626 321.392 67.8726 317.457C68.4394 316.571 69.1357 315.767 69.9994 314.628C72.0397 319.519 73.9668 324.01 75.7534 328.555C75.9963 329.175 75.6671 330.125 75.3756 330.832C73.1355 336.209 70.7928 341.542 68.5905 346.934C67.9968 348.381 67.1601 348.91 65.7081 348.51C59.6571 346.848 53.5954 345.218 47.5714 343.453C46.8211 343.231 46.0114 342.416 45.693 341.671C43.4961 336.597 41.4233 331.464 39.0645 325.758L39.0698 325.769Z" fill="#00DB00"/>
<path d="M445.931 140.165C448.705 145.784 451.28 150.783 453.606 155.895C454.049 156.872 453.866 158.437 453.401 159.479C451.053 164.72 448.468 169.853 446.06 175.068C445.294 176.725 444.414 176.973 442.697 176.39C437.267 174.549 431.756 172.935 426.299 171.17C425.511 170.917 424.496 170.501 424.151 169.859C421.873 165.594 419.746 161.255 417.312 156.418C421.673 156.931 425.549 157.384 429.43 157.849C430.585 157.989 431.815 157.951 432.873 158.356C436.517 159.759 437.154 159.711 439.221 155.069C441.332 150.329 443.48 145.601 445.925 140.165H445.931Z" fill="#00DB00"/>
<path d="M473.756 232.16C473.885 235.987 473.745 239.847 474.209 243.636C474.835 248.721 473.081 252.348 468.919 255.241C465.616 257.535 462.582 260.24 459.516 262.863C458.059 264.11 456.92 264.013 455.554 262.761C451.252 258.82 446.864 254.971 442.578 251.009C441.974 250.453 441.445 249.476 441.423 248.683C441.315 243.965 441.369 239.248 441.369 234.211C445.272 236.694 449.282 239.177 453.223 241.768C459.031 245.585 457.589 245.099 462.232 241.38C465.924 238.416 469.384 235.161 472.946 232.036L473.756 232.166V232.16Z" fill="#00DB00"/>
<path d="M26.9678 231.988C31.0161 235.502 35.1616 238.913 39.0859 242.562C41.245 244.57 42.9183 244.629 45.3095 242.832C48.8127 240.198 52.629 237.979 56.3427 235.631C56.9688 235.232 57.7353 235.059 58.5396 234.74C58.5396 239.787 58.5774 244.494 58.491 249.207C58.4802 249.822 57.9458 250.556 57.4492 251.015C53.0284 255.079 48.559 259.095 44.0896 263.106C43.6308 263.516 43.0695 263.808 42.1788 264.407C37.0455 259.997 31.8906 255.576 26.7626 251.123C26.3902 250.799 25.9962 250.232 25.9908 249.779C25.9368 243.901 25.9584 238.022 25.9584 232.144L26.9678 231.988V231.988Z" fill="#00DB00"/>
<path d="M82.5602 370.166C84.5412 372.018 85.9824 373.211 87.2347 374.576C88.881 376.368 90.5112 376.779 92.6379 375.337C94.0629 374.371 95.7039 373.729 97.2531 372.941L97.7982 373.443C96.9994 375.181 96.2707 376.962 95.3746 378.652C94.4948 380.303 94.5379 381.599 96.0277 382.932C97.6201 384.357 99.0127 386.009 100.772 387.86C98.4622 387.612 96.2922 387.526 94.1925 387.105C92.3626 386.738 91.2669 387.288 90.5112 388.913C89.5666 390.937 88.5572 392.934 87.1969 395.725C86.6733 392.907 86.2577 390.813 85.9068 388.708C85.5992 386.856 85.0216 385.642 82.6897 385.663C80.4874 385.68 78.2851 385.032 75.5322 384.589C77.7777 383.369 79.559 382.225 81.4806 381.399C83.7369 380.422 84.2605 378.884 83.7369 376.644C83.3051 374.781 83.046 372.876 82.571 370.172L82.5602 370.166Z" fill="#00DB00"/>
<path d="M398.889 387.909C401.053 385.734 402.883 384.136 404.389 382.274C404.95 381.577 405.129 380.152 404.837 379.273C404.179 377.286 403.121 375.429 402.225 373.524C402.403 373.335 402.581 373.151 402.759 372.963C404.529 373.864 406.338 374.706 408.065 375.683C409.749 376.638 411.072 376.347 412.378 374.981C413.787 373.508 415.33 372.158 417.355 370.965C417.036 372.649 416.809 374.361 416.367 376.012C415.665 378.641 416.216 380.509 418.915 381.631C420.712 382.382 422.364 383.461 424.42 384.579C421.802 385.01 419.562 385.653 417.317 385.669C415.147 385.685 414.526 386.716 414.224 388.519C413.905 390.408 413.441 392.276 413.042 394.154L412.232 394.284C411.498 392.832 410.64 391.428 410.051 389.922C409.123 387.553 407.687 386.522 405.058 387.143C403.25 387.574 401.35 387.623 398.899 387.909H398.889Z" fill="#00DB00"/>
<path d="M303.622 256.618C310.132 256.504 315.762 250.869 313.419 242.918C311.131 235.151 305.479 229.791 300.448 223.988C295.213 217.948 289.593 212.237 284.476 206.105C279.656 200.329 276.25 193.766 274.841 186.214C273.103 176.897 279.159 166.701 288.303 163.7C294.338 161.719 299.968 162.366 305.533 165.864C306.176 164.79 306.715 163.905 307.244 163.009C309.42 159.306 319.924 152.629 324.237 152.353C327.367 152.154 330.574 152.521 333.64 152.003C336.052 151.598 338.681 150.691 340.549 149.185C344.02 146.389 346.379 146.734 347.728 150.934C347.782 151.107 347.82 151.285 347.879 151.452C350.071 157.276 349.509 158.275 343.14 158.41C339.329 158.491 337.596 161.411 335.227 163.43C329.025 168.709 329.073 168.768 321.775 171.089C322.164 172.136 322.504 173.2 322.947 174.215C325.386 179.747 324.388 184.762 320.221 187.79C315.562 191.18 310.364 190.797 305.787 186.592C303.871 184.832 302.16 182.851 300.335 180.994C297.706 178.322 295.779 177.799 293.755 179.148C291.607 180.584 290.743 183.024 292.471 186.111C295.218 191.007 298.203 195.887 301.814 200.151C307.671 207.066 314.202 213.392 320.28 220.123C324.928 225.273 329.03 230.859 331.567 237.407C337.71 253.303 327.324 271.284 310.499 274.063C304.61 275.035 298.916 274.576 293.253 272.682C291.985 272.255 290.209 272.374 288.989 272.935C278.199 277.907 267.306 279.758 255.922 274.911C255.026 274.528 253.288 274.765 252.629 275.413C247.555 280.422 241.229 282.716 234.509 284.298C231.551 284.994 228.63 285.82 225.052 286.759C225.851 288.119 226.272 289.264 227.044 290.073C232.398 295.671 241.715 294.856 245.941 288.405C247.123 286.603 248.559 285.512 250.621 286.349C252.737 287.207 253.083 289.048 252.824 291.25C252.068 297.69 246.276 302.245 239.901 303.681C231.286 305.619 223.961 303.12 217.678 297.112C217.241 296.691 216.691 296.389 216.21 296.043C212.631 299.422 214.218 307.73 219.222 309.781C222.218 311.012 225.678 312.064 228.814 311.805C235.486 311.249 242.13 310.018 248.694 308.631C259.754 306.299 270.679 303.044 282.161 304.086C290.732 304.863 297.971 308.097 302.203 316.172C306.445 324.263 304.114 336.03 295.99 341.342C295.18 341.871 294.398 342.448 293.885 342.799C294.835 345.514 296.519 347.976 296.357 350.308C295.952 355.965 298.775 361.837 295.261 367.3C293.863 369.47 292.859 371.888 291.456 374.047C289.82 376.568 289.507 379.105 290.284 381.982C291.353 385.928 289.475 387.742 285.399 386.953C284.347 386.748 283.24 386.797 282.193 386.57C279.737 386.036 278.296 383.623 279.775 381.728C283.078 377.496 281.767 373.124 280.504 368.925C279.046 364.088 278.614 359.484 281.006 354.448C279.829 354.227 278.852 353.978 277.859 353.87C272.828 353.325 268.904 351.349 267.387 346.07C265.956 341.094 268.137 335.825 273.038 333.79C276.66 332.29 280.552 331.431 284.325 330.303C286.398 329.683 288.001 328.56 287.872 326.196C287.737 323.756 286.209 321.91 283.877 321.78C279.003 321.516 273.978 321.046 269.233 321.904C258.74 323.799 248.435 326.692 237.963 328.733C229.856 330.314 221.581 331.388 213.5 328.436C198.548 322.973 191.418 305.425 198.079 290.905C200.335 285.982 203.644 281.939 207.611 278.328C208.372 277.637 209.026 276.428 209.08 275.424C209.754 263.252 214.029 252.92 223.978 245.342C224.625 244.85 225.278 243.593 225.1 242.918C222.758 234.114 225.214 225.85 227.653 217.543C228.08 216.085 227.956 214.466 228.091 212.922C226.38 213.111 224.544 212.966 222.979 213.549C217.435 215.61 213.652 224.247 217.02 229.845C218.04 231.539 218.477 233.402 216.631 234.94C214.871 236.403 213.085 236.009 211.46 234.73C206.872 231.113 205.236 226.266 206.105 220.625C207.611 210.877 213.452 204.739 222.569 201.474C223.567 201.117 224.544 200.713 225.532 200.324C223.33 194.85 215.606 193.177 210.688 196.983C206.478 200.238 204.038 204.799 202.365 209.651C199.288 218.552 196.697 227.621 193.653 236.532C190.824 244.813 187.386 252.823 180.698 258.89C174.744 264.288 167.867 266.528 160.078 263.862C152.116 261.136 147.194 255.625 146.292 246.977C146.19 246 146.038 245.034 145.871 243.771C141.121 244.473 137.105 243.091 133.667 239.949C133.364 239.669 132.862 239.55 132.431 239.48C127.373 238.681 125.079 234.8 122.79 230.897C120.42 226.854 118.736 222.347 113.101 221.348C109.895 220.776 109.436 217.457 111.805 215.13C112.426 214.52 112.907 213.759 113.387 213.025C115.023 210.553 118.407 210.234 119.541 212.841C121.63 217.645 125.959 218.569 130.131 219.713C134.897 221.019 139.383 222.579 142.379 227.426C143.286 226.282 144.03 225.354 144.765 224.42C147.35 221.122 150.519 218.984 154.929 219.519C158.972 220.01 162.421 221.867 163.452 225.877C164.197 228.77 163.846 232.047 163.49 235.097C163.204 237.558 162.113 239.917 161.492 242.351C161.017 244.219 161.19 246.34 163.069 247.031C164.607 247.598 167.257 247.76 168.197 246.842C170.647 244.462 173.136 241.66 174.345 238.54C177.459 230.525 180.002 222.277 182.56 214.056C185.497 204.626 188.26 195.147 194.025 186.921C202.618 174.657 219.87 171.904 232.015 180.703C238.843 185.653 242.956 192.206 244.559 200.389C244.959 202.429 245.774 203.816 247.615 205.069C255.296 210.31 261.12 217.149 264.051 226.115C264.931 228.808 264.548 232.306 266.162 234.265C267.695 236.122 271.446 235.971 273.584 237.558C278.091 240.905 282.182 244.807 286.436 248.489C286.776 248.78 287.008 249.212 287.37 249.46C288.784 250.421 290.23 251.333 291.666 252.267C292.238 250.545 293.253 248.834 293.313 247.096C293.555 239.636 289.037 234.746 281.588 234.163C279.764 234.022 278.49 233.434 278.118 231.496C277.745 229.564 278.469 228.236 280.158 227.259C284.255 224.889 290.705 225.505 295.115 228.922C302.969 234.999 305.852 242.994 304.076 252.726C303.855 253.935 303.784 255.166 303.622 256.596V256.618ZM116.162 217.511L115.854 218.412C121.111 220.263 123.303 224.749 125.651 229.175C127.465 232.597 129.451 235.944 133.969 236.381C134.681 236.451 135.421 237.029 135.999 237.536C141.18 242.13 146.281 241.461 149.973 235.68C150.637 234.643 151.398 233.677 152.116 232.678C152.516 233.499 152.343 233.963 152.214 234.438C151.296 237.801 149.893 241.121 149.585 244.537C148.959 251.587 152.516 256.666 158.642 259.732C165.195 263.014 171.597 262.123 177.259 257.535C184.412 251.749 187.78 243.566 190.63 235.183C193.663 226.266 196.373 217.241 199.401 208.323C201.183 203.082 203.919 198.386 208.254 194.71C212.043 191.498 216.367 190.667 220.831 192.254C225.942 194.068 229.586 197.674 231.211 202.904C228.231 203.627 225.386 204.097 222.693 205.004C214.035 207.924 208.729 215.87 209.42 224.673C209.625 227.291 210.397 229.645 213.36 231.334C213.144 230.141 213.09 229.45 212.896 228.797C209.949 219.076 218.763 208.248 229.008 209.02C232.026 209.246 232.641 209.554 232.047 212.572C231.184 216.965 229.904 221.278 228.765 225.613C227.357 230.983 226.531 236.36 228.371 241.801C228.814 243.118 229.381 244.392 229.721 245.272C226.849 247.571 223.988 249.363 221.748 251.738C215.363 258.518 212.648 266.901 212.291 276.05C212.21 278.139 211.644 279.499 210.04 280.789C204.637 285.14 201.021 290.592 199.477 297.501C196.843 309.327 203.779 322.007 215.314 325.559C223.033 327.934 230.849 326.854 238.525 325.273C248.975 323.124 259.333 320.523 269.773 318.336C274.809 317.284 279.948 317.122 284.978 318.682C288.697 319.832 290.759 322.082 290.964 325.132C291.278 329.791 289.27 332.614 284.681 333.828C281.821 334.584 278.9 335.118 276.067 335.96C272.277 337.083 269.924 340.322 270.194 343.69C270.485 347.317 273.006 349.838 277.114 350.405C278.695 350.621 280.325 350.491 281.934 350.572C285.092 350.734 286.571 353.034 284.676 355.457C281.556 359.446 282.506 363.505 283.602 367.689C284.752 372.072 286.447 376.395 284.142 381.032C285.102 381.264 285.745 381.421 286.587 381.631C285.675 376.466 288.039 372.466 290.522 368.59C292.859 364.941 294.948 361.389 292.919 356.85C292.605 356.148 292.999 355.101 293.161 354.232C294.344 347.933 290.813 343.679 284.358 343.636C283.262 343.631 282.166 343.539 281.07 343.485C281.043 343.242 281.016 342.999 280.989 342.756C281.599 342.589 282.204 342.394 282.819 342.254C285.092 341.741 287.424 341.417 289.637 340.716C296.308 338.616 300.616 333.072 300.896 326.466C301.231 318.649 297.507 312.512 290.824 309.587C282.684 306.019 274.296 306.753 265.967 308.318C256.893 310.029 247.965 312.55 238.865 314.007C233.456 314.871 227.756 314.936 222.31 314.315C216.912 313.7 212.669 310.358 211.53 304.728C210.434 299.298 211.282 294.041 215.514 289.55C216.232 290.413 216.815 291.067 217.344 291.758C221.284 296.912 226.326 300.2 232.862 301.026C238.881 301.787 245.952 298.726 248.257 294.214C248.678 293.393 248.759 292.394 248.996 291.482C248.689 291.31 248.381 291.131 248.079 290.959C247.75 291.488 247.507 292.103 247.08 292.529C239.523 300.097 226.131 297.738 221.549 288.109C220.599 286.111 220.922 284.875 223.033 284.206C225.678 283.369 228.307 282.435 231 281.788C239.518 279.731 247.971 277.615 252.775 269.648C255.62 270.884 258.14 272.358 260.861 273.103C270.631 275.769 279.845 273.875 288.719 269.351C289.885 268.757 291.672 268.606 292.897 269.038C300.071 271.537 307.228 272.234 314.44 269.416C326.148 264.849 332.803 252.499 329.17 240.899C327.702 236.214 325.176 231.55 322.061 227.75C315.53 219.772 308.292 212.377 301.35 204.734C296.87 199.806 292.33 194.861 289.917 188.54C288.994 186.122 288.33 183.191 288.789 180.73C289.88 174.927 296.503 173.259 301.291 177.41C303.795 179.58 305.916 182.182 308.345 184.449C311.298 187.202 314.736 187.515 317.716 185.518C320.766 183.472 321.732 180.303 320.275 176.482C319.638 174.819 318.52 173.335 317.889 171.672C317.522 170.701 317.241 169.205 317.727 168.531C318.342 167.689 319.908 166.852 320.847 167.046C325.43 168.002 328.236 165.254 331.254 162.669C334.023 160.294 335.723 156.634 339.674 155.662C340.867 155.371 342.028 154.934 343.313 154.529C342.821 153.228 342.206 152.456 340.819 153.487C337.386 156.051 333.408 155.517 329.532 155.414C325.165 155.301 320.874 155.204 317.84 159.225C317.403 159.802 316.502 160.094 315.762 160.369C308.988 162.879 307.261 168.142 311.223 174.252C311.66 174.927 312.059 175.634 312.475 176.325C312.248 176.482 312.016 176.638 311.789 176.795C311.158 176.12 310.58 175.386 309.889 174.781C306.942 172.201 304.319 168.941 300.918 167.251C294.916 164.266 288.87 165.686 283.829 169.94C278.674 174.29 276.941 180.109 278.215 186.705C279.732 194.554 284.136 200.923 289.226 206.79C294.581 212.966 300.265 218.855 305.749 224.916C310.532 230.212 314.909 235.777 316.815 242.859C318.175 247.911 317.068 252.386 313.258 255.9C309.096 259.738 304.097 261.206 298.484 260.159C299.412 256.763 300.529 253.638 301.096 250.416C302.667 241.439 296.859 231.777 288.741 229.531C286.787 228.992 284.86 228.862 282.576 230.147C283.505 230.589 283.883 230.886 284.293 230.946C293.188 232.274 301.528 244.856 293.685 255.781C292.611 257.276 291.607 257.66 290.209 256.353C287.72 254.021 285.135 251.787 282.781 249.32C277.06 243.328 271.122 237.801 262.232 237.59C262.027 234.989 262.086 232.538 261.617 230.201C259.549 219.972 253.266 212.663 244.765 207.19C242.595 205.792 241.882 204.237 241.488 201.916C240.349 195.158 237.337 189.329 232.058 184.827C221.003 175.408 203.898 177.437 196.438 188.983C192.26 195.455 189.48 202.521 187.224 209.846C184.428 218.93 181.669 228.031 178.555 237.002C176.936 241.66 174.631 246.097 170.572 249.266C167.619 251.571 164.51 251.932 161.784 250.351C158.772 248.602 157.601 245.968 158.286 242.098C158.615 240.252 159.188 238.449 159.609 236.613C160.111 234.438 160.839 232.268 160.969 230.066C161.163 226.811 159.263 224.139 156.505 223.032C153.736 221.921 150.61 222.638 148.446 225.175C147.118 226.73 146.098 228.544 144.98 230.271C143.507 232.549 140.662 232.695 139.701 230.206C137.807 225.3 133.704 223.918 129.289 222.768C125.354 221.742 121.262 221.1 118.337 217.759C117.964 217.332 116.869 217.538 116.113 217.451L116.162 217.511Z" fill="#00DB00"/>
<path d="M241.229 214.758C247.9 219.054 252.591 231.383 250.432 238.449C249.352 241.979 247.129 243.647 244.063 243.226C241.979 242.94 239.55 240.236 239.383 237.013C239.14 232.49 239.291 227.918 239.609 223.394C239.809 220.571 240.635 217.797 241.229 214.758ZM244.23 223.151L243.302 223.238C243.037 224.603 242.546 225.974 242.557 227.335C242.584 230.8 242.692 234.276 243.107 237.709C243.199 238.46 244.673 239.464 245.585 239.55C246.179 239.609 247.323 238.314 247.523 237.466C248.775 232.128 246.767 227.556 244.235 223.151H244.23Z" fill="#00DB00"/>
<path d="M283.451 262.901C276.131 266.35 261.773 264.25 257.525 258.275C256.089 256.262 255.387 254.216 256.402 252.04C257.417 249.87 259.544 249.18 261.87 249.422C263.112 249.552 264.396 249.725 265.546 250.173C272.455 252.893 277.556 258.129 283.451 262.895V262.901ZM275.127 260.558C271.457 257.249 267.97 254.529 263.662 253.034C263.004 252.807 262.205 252.694 261.535 252.839C260.812 252.996 259.792 253.374 259.592 253.913C259.338 254.599 259.544 255.689 259.959 256.348C261.784 259.22 270.01 261.956 275.127 260.558Z" fill="#00DB00"/>
<path d="M220.274 275.532C221.43 269.281 224.231 264.709 227.966 260.65C230.439 257.962 233.348 255.949 237.035 255.198C239.707 254.653 242.362 255.42 243.431 257.368C244.775 259.819 244.111 262.205 242.416 264.061C240.808 265.827 238.924 267.581 236.808 268.585C231.594 271.057 226.169 273.092 220.274 275.532V275.532ZM226.552 269.713C230.401 267.813 233.726 266.307 236.91 264.542C238.109 263.878 239.156 262.734 239.912 261.573C240.344 260.909 240.371 259.587 239.982 258.901C239.69 258.388 238.411 258.145 237.628 258.243C233.629 258.745 227.47 264.839 226.557 269.708L226.552 269.713Z" fill="#00DB00"/>
</g>
<defs>
<clipPath id="clip0_265_820">
<rect width="500" height="499.768" fill="white"/>
</clipPath>
</defs>
</svg>
