<svg width="500" height="159" viewBox="0 0 500 159" fill="none" xmlns="http://www.w3.org/2000/svg">
<path d="M2.97632 155.216L13.2307 117.781C6.2259 105.995 2.54166 92.5329 2.56456 78.8221C2.56159 59.9363 9.55419 41.7185 22.1903 27.6828C34.8263 13.6471 52.2093 4.78791 70.9916 2.81421V18.9078C56.4733 20.8402 43.1533 27.9776 33.5013 38.9937C23.8494 50.0098 18.5215 64.1554 18.5142 78.8018C18.5215 93.4481 23.8494 107.594 33.5013 118.61C43.1533 129.626 56.4733 136.763 70.9916 138.696V154.789C60.2891 153.676 49.9476 150.3 40.6501 144.883L2.97632 155.206V155.216ZM86.9114 138.716C101.43 136.784 114.75 129.646 124.402 118.63C134.054 107.614 139.377 93.4684 139.384 78.8221C139.377 64.1758 134.054 50.0302 124.402 39.014C114.75 27.9979 101.43 20.8605 86.9114 18.9282V2.81421C105.695 4.78185 123.083 13.6365 135.723 27.6697C148.363 41.7029 155.358 59.9202 155.358 78.8068C155.358 97.6934 148.363 115.911 135.723 129.944C123.083 143.977 105.695 152.832 86.9114 154.799V138.716ZM357.306 117.324C350.895 111.228 347.693 101.889 347.696 89.3073V31.5724H373.94V83.0792C373.94 85.3652 374.007 87.7427 374.123 90.1913C374.205 92.49 374.669 94.7593 375.493 96.9071C376.263 98.9093 377.59 100.649 379.318 101.921C381.501 103.365 384.097 104.057 386.709 103.892C389.251 104.059 391.775 103.365 393.873 101.921C395.535 100.615 396.809 98.8818 397.564 96.9071C398.384 94.758 398.852 92.4897 398.943 90.1913C399.06 87.7427 399.117 85.3652 399.117 83.0792V31.5724H425.361V89.2921C425.361 101.887 422.176 111.226 415.816 117.309C409.455 123.391 399.712 126.439 386.585 126.453C373.465 126.456 363.707 123.408 357.306 117.309V117.324ZM284.746 122.785C279.573 120.452 274.96 117.038 271.217 112.772C267.419 108.387 264.559 103.274 262.804 97.7453C260.851 91.7011 259.883 85.3818 259.941 79.0304C259.864 72.4417 260.892 65.8869 262.987 59.6398C264.835 54.1049 267.803 49.0079 271.699 44.6638C275.489 40.5059 280.129 37.2138 285.307 35.0116C290.958 32.6648 297.028 31.5012 303.146 31.5928C313.118 31.0293 322.911 34.425 330.392 41.0417C337.22 48.2081 341.225 57.6007 341.674 67.4885H316.149C315.992 66.635 315.702 65.4869 315.311 64.0035C314.866 62.4302 314.134 60.9513 313.158 59.6398C312.044 58.1185 310.651 56.8251 309.05 55.8297C307.052 54.6596 304.761 54.0866 302.447 54.1787C299.703 54.0769 296.993 54.8276 294.693 56.3276C292.604 57.8021 290.903 59.7592 289.732 62.0325C288.453 64.5536 287.55 67.2497 287.058 70.0336C286.5 73.0017 286.219 76.0153 286.22 79.0354C286.218 82.0556 286.499 85.0693 287.058 88.0373C287.546 90.8223 288.449 93.519 289.732 96.0384C290.896 98.3168 292.597 100.275 294.693 101.743C296.989 103.254 299.701 104.01 302.447 103.907C304.398 103.965 306.338 103.572 308.112 102.759C309.645 102.019 310.985 100.938 312.037 99.5995C313.169 98.1443 314.059 96.5143 314.666 94.7735C315.371 92.8369 315.905 90.8433 316.268 88.8146H342.041C342.029 93.4575 341.158 98.058 339.471 102.383C337.768 106.866 335.214 110.978 331.955 114.494C328.515 118.199 324.351 121.157 319.721 123.186C314.502 125.47 308.852 126.6 303.156 126.498C296.821 126.612 290.538 125.34 284.746 122.77V122.785ZM431.607 126.463V31.5724H497.459V54.387H457.835V67.4275H491.838V88.7638H457.835V126.453L431.607 126.463ZM210.768 126.097C208.095 125.789 205.454 125.233 202.885 124.436C200.005 123.555 197.215 122.411 194.545 121.017C191.706 119.54 189.16 117.563 187.024 115.18C184.699 112.558 182.842 109.554 181.537 106.3C180.022 102.335 179.287 98.113 179.384 93.8692H205.628C205.599 95.8962 205.927 97.9127 206.591 99.8281C206.962 101.061 207.622 102.189 208.515 103.117C209.408 104.045 210.507 104.748 211.725 105.167C214.103 105.99 216.601 106.414 219.117 106.422C220.277 106.416 221.437 106.312 222.58 106.112C223.839 105.902 225.046 105.472 226.157 104.842C227.254 104.217 228.193 103.348 228.9 102.302C229.658 101.069 230.029 99.638 229.967 98.1924C230.001 97.1363 229.719 96.0947 229.148 95.2053C228.383 94.2277 227.396 93.4444 226.271 92.9193C224.469 92.0157 222.603 91.2515 220.685 90.6332C218.292 89.8357 215.269 88.8755 211.616 87.7833C208.278 86.7673 204.876 85.6903 201.411 84.5524C198.11 83.4792 194.979 81.9396 192.114 79.9803C189.376 78.0809 187.076 75.6157 185.372 72.7514C183.488 69.3171 182.573 65.4336 182.733 61.5194C182.602 56.8475 183.609 52.2137 185.665 48.0166C187.505 44.3757 190.131 41.1897 193.355 38.6896C196.619 36.1854 200.347 34.3519 204.323 33.2946C208.483 32.1455 212.783 31.5678 217.098 31.5775C221.557 31.5614 226 32.0729 230.339 33.1015C234.367 34.0231 238.177 35.721 241.556 38.1003C244.861 40.4864 247.554 43.6196 249.419 47.2444C251.547 51.5667 252.656 56.3206 252.653 61.1384H227.824C228.11 59.6802 227.924 58.1684 227.288 56.8254C226.711 55.6462 225.836 54.639 224.748 53.9044C223.644 53.073 222.382 52.4718 221.042 52.1365C219.713 51.8012 218.349 51.6306 216.979 51.6285C215.981 51.6412 214.986 51.7312 214.002 51.8978C212.933 52.0491 211.887 52.3448 210.897 52.7766C209.963 53.1842 209.146 53.8159 208.515 54.6156C207.846 55.5098 207.511 56.6089 207.563 57.7246C207.603 58.5278 207.834 59.3097 208.238 60.0052C208.641 60.7007 209.207 61.2895 209.885 61.7226C211.631 62.9186 213.534 63.8611 215.545 64.5217C217.857 65.3193 220.453 66.0915 223.369 66.8077C226.285 67.524 229.221 68.3318 232.249 69.1446C235.253 70.0684 238.201 71.1693 241.074 72.4415C243.879 73.6641 246.475 75.3145 248.774 77.3336C251.084 79.3731 252.938 81.8782 254.211 84.6845C255.641 88.0248 256.336 91.634 256.245 95.2663C256.431 100.432 255.234 105.554 252.782 110.105C250.582 113.983 247.475 117.27 243.729 119.686C239.854 122.156 235.574 123.917 231.083 124.888C226.415 125.939 221.64 126.469 216.855 126.468C215.256 126.451 213.23 126.322 210.768 126.082V126.097ZM73.358 115.937C71.2311 115.703 69.1299 115.264 67.0873 114.626C64.7967 113.922 62.5762 113.013 60.4495 111.909C58.1968 110.734 56.1694 109.165 54.4715 107.276C52.6273 105.188 51.1547 102.802 50.1108 100.219C48.9056 97.0644 48.3277 93.7047 48.4091 90.3284H69.2701C69.2477 91.9426 69.5092 93.5483 70.0391 95.0732C70.3327 96.0501 70.8555 96.9433 71.5621 97.6791C72.2687 98.4148 73.1379 98.9721 74.1021 99.3049C75.9909 99.9692 77.9787 100.313 79.9809 100.321C80.9058 100.307 81.8279 100.22 82.7392 100.062C83.7403 99.901 84.701 99.5565 85.5769 99.0458C86.4548 98.5479 87.2077 97.8521 87.7697 97.0138C88.3779 96.0344 88.6753 94.8939 88.623 93.7422C88.6542 92.8983 88.4137 92.0661 87.9433 91.3648C87.3416 90.5893 86.5666 89.9692 85.6762 89.5563C84.2424 88.8376 82.7565 88.2279 81.2311 87.7325C79.3261 87.0975 76.9186 86.3558 74.0128 85.477C71.3661 84.6642 68.6453 83.8158 65.8818 82.9115C63.25 82.0636 60.7551 80.8384 58.475 79.2742C56.3017 77.7619 54.4777 75.8031 53.1221 73.5287C51.6289 70.7961 50.905 67.7094 51.0285 64.5979C50.9301 60.8854 51.7317 57.2042 53.3652 53.8688C54.8284 50.9792 56.9106 48.447 59.4622 46.4519C62.0664 44.4693 65.0316 43.0145 68.1936 42.1694C71.5037 41.262 74.9215 40.8075 78.3537 40.8181C81.8977 40.8011 85.4324 41.2052 88.881 42.0221C92.0772 42.7614 95.1005 44.1103 97.7859 45.9947C100.416 47.894 102.565 50.3839 104.057 53.2643C105.74 56.6999 106.61 60.4773 106.597 64.3033H86.8618C87.0817 63.1466 86.9307 61.9501 86.4302 60.8844C85.9752 59.9397 85.276 59.1358 84.4012 58.5577C83.5279 57.8861 82.5241 57.4035 81.4543 57.1404C80.3984 56.8713 79.3144 56.7348 78.2247 56.734C77.4367 56.7423 76.646 56.8103 75.8683 56.9372C75.0184 57.0629 74.1918 57.2985 73.4026 57.6382C72.6572 57.9621 72.0052 58.4688 71.5075 59.1114C70.977 59.8236 70.7089 60.6985 70.7535 61.5854C70.789 62.2214 70.9757 62.84 71.2942 63.3915C71.6128 63.943 72.0559 64.412 72.589 64.7605C73.9783 65.7057 75.4921 66.4513 77.0887 66.9754C78.9276 67.6104 81.0034 68.22 83.3098 68.7839C85.6161 69.3478 87.9712 69.9726 90.3792 70.6483C92.7681 71.3807 95.1101 72.256 97.394 73.2696C99.621 74.2469 101.686 75.5592 103.516 77.1609C105.359 78.7755 106.832 80.7657 107.842 82.9979C108.976 85.6557 109.526 88.5269 109.449 91.4156C109.595 95.5229 108.643 99.5948 106.691 103.211C104.944 106.299 102.472 108.914 99.4876 110.832C96.4107 112.8 93.0031 114.201 89.4316 114.967C85.7286 115.812 81.9437 116.238 78.1454 116.237C76.9261 116.242 75.3189 116.135 73.358 115.932V115.937Z" fill="white"/>
</svg>
