<svg width="500" height="57" viewBox="0 0 500 57" fill="none" xmlns="http://www.w3.org/2000/svg">
<path d="M31.5195 48.6068V52.5272H67.0269C99.9071 52.5272 116.347 37.4923 116.347 7.42253V3.5022H80.8398C47.9596 3.5022 31.5195 18.5371 31.5195 48.6068ZM72.9475 42.7211H45.3271C45.3271 24.4176 55.1911 14.6115 74.9192 13.303H102.54C102.54 31.6066 92.6756 41.4126 72.9475 42.7211Z" fill="white"/>
<path d="M137.791 52.5324H151.599V32.9203H185.134C210.122 32.9203 222.619 23.1143 222.619 3.5022H137.791V52.5324ZM207.112 13.3082C204.401 19.8456 198.391 23.1143 189.083 23.1143H151.599V13.3082H207.112Z" fill="white"/>
<path d="M243.362 13.3082H278.875V52.5324H292.683V13.3082H328.19V3.5022H243.362V13.3082Z" fill="white"/>
<path d="M363.441 3.5022H349.634V52.5324H363.441V3.5022Z" fill="white"/>
<path d="M427.59 13.3082H469.018V3.5022H433.511C400.63 3.5022 384.19 18.5371 384.19 48.6068V52.5272H469.018V42.7211H397.998C397.998 24.4176 407.862 14.6115 427.59 13.303V13.3082Z" fill="white"/>
</svg>
